%TF.GenerationSoftware,KiCad,Pcbnew,9.0.0*%
%TF.CreationDate,2025-03-22T23:10:53-04:00*%
%TF.ProjectId,simpleSBC,73696d70-6c65-4534-9243-2e6b69636164,rev?*%
%TF.SameCoordinates,Original*%
%TF.FileFunction,Copper,L3,Inr*%
%TF.FilePolarity,Positive*%
%FSLAX46Y46*%
G04 Gerber Fmt 4.6, Leading zero omitted, Abs format (unit mm)*
G04 Created by KiCad (PCBNEW 9.0.0) date 2025-03-22 23:10:53*
%MOMM*%
%LPD*%
G01*
G04 APERTURE LIST*
G04 Aperture macros list*
%AMRoundRect*
0 Rectangle with rounded corners*
0 $1 Rounding radius*
0 $2 $3 $4 $5 $6 $7 $8 $9 X,Y pos of 4 corners*
0 Add a 4 corners polygon primitive as box body*
4,1,4,$2,$3,$4,$5,$6,$7,$8,$9,$2,$3,0*
0 Add four circle primitives for the rounded corners*
1,1,$1+$1,$2,$3*
1,1,$1+$1,$4,$5*
1,1,$1+$1,$6,$7*
1,1,$1+$1,$8,$9*
0 Add four rect primitives between the rounded corners*
20,1,$1+$1,$2,$3,$4,$5,0*
20,1,$1+$1,$4,$5,$6,$7,0*
20,1,$1+$1,$6,$7,$8,$9,0*
20,1,$1+$1,$8,$9,$2,$3,0*%
G04 Aperture macros list end*
%TA.AperFunction,ComponentPad*%
%ADD10R,4.400000X1.800000*%
%TD*%
%TA.AperFunction,ComponentPad*%
%ADD11O,4.000000X1.800000*%
%TD*%
%TA.AperFunction,ComponentPad*%
%ADD12O,1.800000X4.000000*%
%TD*%
%TA.AperFunction,ComponentPad*%
%ADD13R,1.700000X1.700000*%
%TD*%
%TA.AperFunction,ComponentPad*%
%ADD14O,1.700000X1.700000*%
%TD*%
%TA.AperFunction,ComponentPad*%
%ADD15RoundRect,0.248000X0.552000X-0.552000X0.552000X0.552000X-0.552000X0.552000X-0.552000X-0.552000X0*%
%TD*%
%TA.AperFunction,ComponentPad*%
%ADD16C,1.600000*%
%TD*%
%TA.AperFunction,ComponentPad*%
%ADD17C,1.720000*%
%TD*%
%TA.AperFunction,ComponentPad*%
%ADD18C,2.200000*%
%TD*%
%TA.AperFunction,ComponentPad*%
%ADD19R,1.600000X1.500000*%
%TD*%
%TA.AperFunction,ComponentPad*%
%ADD20C,3.000000*%
%TD*%
%TA.AperFunction,HeatsinkPad*%
%ADD21C,0.500000*%
%TD*%
%TA.AperFunction,ViaPad*%
%ADD22C,0.400000*%
%TD*%
%TA.AperFunction,ViaPad*%
%ADD23C,0.350000*%
%TD*%
%TA.AperFunction,Conductor*%
%ADD24C,0.200000*%
%TD*%
%TA.AperFunction,Conductor*%
%ADD25C,0.089000*%
%TD*%
%TA.AperFunction,Conductor*%
%ADD26C,0.146812*%
%TD*%
%TA.AperFunction,Conductor*%
%ADD27C,0.090000*%
%TD*%
G04 APERTURE END LIST*
D10*
%TO.N,+5V*%
%TO.C,J4*%
X113400000Y-100400000D03*
D11*
%TO.N,GND*%
X113400000Y-106200000D03*
D12*
X118200000Y-103400000D03*
%TD*%
D13*
%TO.N,/I2C4_SDA*%
%TO.C,J8*%
X110500000Y-94330000D03*
D14*
%TO.N,/I2C4_SCL*%
X110500000Y-91790000D03*
%TO.N,GND*%
X110500000Y-89250000D03*
%TD*%
D13*
%TO.N,/PA15*%
%TO.C,J9*%
X179710000Y-88640000D03*
D14*
%TO.N,/PC7*%
X182250000Y-88640000D03*
%TO.N,/PE2*%
X179710000Y-91180000D03*
%TO.N,/PC2*%
X182250000Y-91180000D03*
%TO.N,/PA4*%
X179710000Y-93720000D03*
%TO.N,/PD15*%
X182250000Y-93720000D03*
%TO.N,/PE15*%
X179710000Y-96260000D03*
%TO.N,/PD4*%
X182250000Y-96260000D03*
%TO.N,/PE0*%
X179710000Y-98800000D03*
%TO.N,/PE12*%
X182250000Y-98800000D03*
%TO.N,/PG15*%
X179710000Y-101340000D03*
%TO.N,/PD1*%
X182250000Y-101340000D03*
%TO.N,/PC6*%
X179710000Y-103880000D03*
%TO.N,/PD0*%
X182250000Y-103880000D03*
%TO.N,/PB4*%
X179710000Y-106420000D03*
%TO.N,/PD3*%
X182250000Y-106420000D03*
%TO.N,/PE5*%
X179710000Y-108960000D03*
%TO.N,/PG6*%
X182250000Y-108960000D03*
%TO.N,GND*%
X179710000Y-111500000D03*
%TO.N,+3V3*%
X182250000Y-111500000D03*
%TD*%
D15*
%TO.N,/ETH_TX+*%
%TO.C,J7*%
X169735000Y-72790000D03*
D16*
%TO.N,+3V3*%
X172275000Y-74060000D03*
%TO.N,/ETH_TX-*%
X169735000Y-75330000D03*
%TO.N,/ETH_RX+*%
X172275000Y-76600000D03*
%TO.N,+3V3*%
X169735000Y-77870000D03*
%TO.N,/ETH_RX-*%
X172275000Y-79140000D03*
%TO.N,unconnected-(J7-NC-Pad7)*%
X169735000Y-80410000D03*
%TO.N,GND*%
X172275000Y-81680000D03*
D17*
%TO.N,Net-(J7-Pad9)*%
X164905000Y-71770000D03*
%TO.N,/LED_0*%
X164905000Y-74310000D03*
%TO.N,Net-(J7-Pad11)*%
X164905000Y-80160000D03*
%TO.N,/LED_1*%
X164905000Y-82700000D03*
D18*
%TO.N,unconnected-(J7-PadSH)*%
X175575000Y-69335000D03*
%TO.N,unconnected-(J7-PadSH)_1*%
X175575000Y-85135000D03*
%TD*%
D13*
%TO.N,/PB9*%
%TO.C,J3*%
X170460000Y-88640000D03*
D14*
%TO.N,/PA9*%
X173000000Y-88640000D03*
%TO.N,/PD11*%
X170460000Y-91180000D03*
%TO.N,/PC0*%
X173000000Y-91180000D03*
%TO.N,/PF11*%
X170460000Y-93720000D03*
%TO.N,/PA6*%
X173000000Y-93720000D03*
%TO.N,/PB1*%
X170460000Y-96260000D03*
%TO.N,/PB8*%
X173000000Y-96260000D03*
%TO.N,/PB12*%
X170460000Y-98800000D03*
%TO.N,/PB0*%
X173000000Y-98800000D03*
%TO.N,/PE13*%
X170460000Y-101340000D03*
%TO.N,/PD8*%
X173000000Y-101340000D03*
%TO.N,/PG12*%
X170460000Y-103880000D03*
%TO.N,/PB15*%
X173000000Y-103880000D03*
%TO.N,/PA8*%
X170460000Y-106420000D03*
%TO.N,/PE6*%
X173000000Y-106420000D03*
%TO.N,/PD7*%
X170460000Y-108960000D03*
%TO.N,/PD5*%
X173000000Y-108960000D03*
%TO.N,GND*%
X170460000Y-111500000D03*
%TO.N,+3V3*%
X173000000Y-111500000D03*
%TD*%
D19*
%TO.N,Net-(J6-VBUS)*%
%TO.C,J6*%
X124820000Y-70710000D03*
D16*
%TO.N,/USB1_D+*%
X122320000Y-70710000D03*
%TO.N,/USB1_D-*%
X120320000Y-70710000D03*
%TO.N,GND*%
X117820000Y-70710000D03*
D20*
X127890000Y-68000000D03*
X114750000Y-68000000D03*
%TD*%
D19*
%TO.N,Net-(J5-VBUS)*%
%TO.C,J5*%
X144320000Y-70710000D03*
D16*
%TO.N,/USB2_D-*%
X141820000Y-70710000D03*
%TO.N,/USB2_D+*%
X139820000Y-70710000D03*
%TO.N,GND*%
X137320000Y-70710000D03*
D20*
X147390000Y-68000000D03*
X134250000Y-68000000D03*
%TD*%
D21*
%TO.N,GND*%
%TO.C,U6*%
X156462500Y-75500000D03*
X155462500Y-75500000D03*
X154462500Y-75500000D03*
X156462500Y-76500000D03*
X155462500Y-76500000D03*
X154462500Y-76500000D03*
X156462500Y-77500000D03*
X155462500Y-77500000D03*
X154462500Y-77500000D03*
%TD*%
D22*
%TO.N,Net-(JP9-C)*%
X158000000Y-89850000D03*
X149981617Y-87978900D03*
%TO.N,Net-(JP8-C)*%
X156500000Y-89900000D03*
X150522467Y-87800002D03*
%TO.N,+3V3*%
X162100000Y-86050000D03*
X162100000Y-83550000D03*
%TO.N,GND*%
X157600000Y-83250000D03*
X157450000Y-85850000D03*
X127300000Y-78250000D03*
D23*
%TO.N,/PA4*%
X147527493Y-82752981D03*
D22*
%TO.N,/Memory/UDM*%
X120400000Y-86500000D03*
%TO.N,/Memory/UDQS-*%
X139291624Y-80913547D03*
%TO.N,/Memory/UDQS+*%
X120350000Y-84700000D03*
%TO.N,+1V35*%
X119221197Y-83800000D03*
%TO.N,/Memory/UDQS+*%
X138628762Y-80348530D03*
%TO.N,/Memory/LDQS+*%
X123260411Y-87738252D03*
%TO.N,/Memory/LDM*%
X123750000Y-86600000D03*
%TO.N,GND*%
X122500000Y-87950000D03*
%TO.N,/Memory/LDQS-*%
X123129043Y-87000000D03*
%TO.N,GND*%
X131001155Y-93672912D03*
%TO.N,+1V35*%
X130331654Y-93572912D03*
%TO.N,/Memory/DQ11*%
X121300000Y-86450000D03*
%TO.N,/Memory/~{CAS}*%
X125850000Y-87050000D03*
%TO.N,/Memory/~{RAS}*%
X124900000Y-86900000D03*
%TO.N,/Memory/A13*%
X131300000Y-87950000D03*
%TO.N,/Memory/A11*%
X129781827Y-83871202D03*
%TO.N,/Memory/A10*%
X126600000Y-83950000D03*
%TO.N,/Memory/A7*%
X130450000Y-88750000D03*
%TO.N,/Memory/A6*%
X130600000Y-83900000D03*
%TO.N,/Memory/A5*%
X128950000Y-88700000D03*
%TO.N,/Memory/A3*%
X128952114Y-87956488D03*
%TO.N,/Memory/A2*%
X128748521Y-86963643D03*
%TO.N,/Memory/A0*%
X128150000Y-86900000D03*
%TO.N,/Memory/A14*%
X131450000Y-83900000D03*
X137950000Y-82900000D03*
%TO.N,/Memory/A4*%
X130600598Y-83113498D03*
%TO.N,GND*%
X129150000Y-93400000D03*
X128606274Y-93378198D03*
X127009118Y-93448939D03*
%TO.N,/Memory/~{CS}*%
X139859118Y-92739869D03*
%TO.N,/Memory/DQ2*%
X140242568Y-92337171D03*
%TO.N,/Memory/CKE*%
X133600000Y-82350000D03*
%TO.N,VREF_DDR*%
X131336737Y-107336737D03*
X126785922Y-79005170D03*
X124900000Y-88750000D03*
X124300000Y-91850000D03*
X127226113Y-83080465D03*
X128000000Y-98000000D03*
X141000000Y-80700000D03*
%TO.N,+1V2*%
X125250000Y-100000000D03*
X123750000Y-100000000D03*
X144242233Y-86271553D03*
X143330000Y-85300000D03*
X126600000Y-100625000D03*
X126500000Y-100000000D03*
X144766382Y-87519659D03*
X126000000Y-100000000D03*
X145149999Y-85910000D03*
X146181129Y-87468223D03*
X144795166Y-88108400D03*
X144577979Y-85396927D03*
X124500000Y-100000000D03*
X125000000Y-100750000D03*
X143533975Y-84283975D03*
%TO.N,GND*%
X149013277Y-80796100D03*
X138902161Y-82398266D03*
X146468070Y-90350729D03*
X132250000Y-102750000D03*
X120250000Y-103000000D03*
X120900000Y-82300000D03*
X121000000Y-103750000D03*
X120850000Y-89550000D03*
X142800000Y-87600000D03*
X147013360Y-80702820D03*
X120250000Y-103750000D03*
X132500000Y-105750000D03*
X141650000Y-75650000D03*
X122690000Y-79076594D03*
X139100000Y-98900000D03*
X119350000Y-89600000D03*
X145500000Y-79420000D03*
X119966868Y-87173020D03*
X131207528Y-82250000D03*
X123342282Y-82300000D03*
X151800000Y-77200000D03*
X142901600Y-81047234D03*
X145150000Y-85250000D03*
X156500000Y-71750000D03*
X140500000Y-79500000D03*
X130450000Y-76900000D03*
X151399751Y-85289870D03*
X146200000Y-84400000D03*
X141020909Y-88874802D03*
X131750000Y-105798398D03*
X156125000Y-69875000D03*
X140014038Y-81335962D03*
X146250000Y-86350000D03*
X127800000Y-94700000D03*
X148119522Y-90707917D03*
X126850000Y-76900000D03*
X119500000Y-82250000D03*
X121750000Y-103000000D03*
X125654333Y-87854333D03*
X127406235Y-82332286D03*
X131250000Y-103750000D03*
X159500000Y-76500000D03*
X129024919Y-89500000D03*
X132500000Y-105000000D03*
X155000000Y-73250000D03*
X121000000Y-78500000D03*
X147510974Y-88106361D03*
X144688900Y-84320753D03*
X149449617Y-84022372D03*
X145163940Y-82833631D03*
X121750000Y-103750000D03*
X147930343Y-85846672D03*
X139500000Y-85700000D03*
X131250000Y-102250000D03*
X142000000Y-94050000D03*
X143200000Y-85985616D03*
X132000000Y-104500000D03*
X151466735Y-80557725D03*
X131390764Y-95073406D03*
X129668792Y-82222999D03*
X141450000Y-84928225D03*
X145446197Y-86830930D03*
X142600000Y-84000000D03*
X140539413Y-87875494D03*
X125818969Y-79006886D03*
X127997931Y-88722437D03*
X123601509Y-89670000D03*
X150706551Y-85917033D03*
X133750000Y-97500000D03*
X145474922Y-83559937D03*
X125247928Y-92002071D03*
X149053324Y-90563863D03*
X129762441Y-88686044D03*
X160500000Y-96500000D03*
X159500000Y-100750000D03*
X126900000Y-96000000D03*
X131325494Y-89550000D03*
X135500000Y-108250000D03*
X140064718Y-90373406D03*
D23*
X149380500Y-87417372D03*
D22*
X146452936Y-83901765D03*
X144144060Y-88945155D03*
X121000000Y-103000000D03*
X130344178Y-79100000D03*
%TO.N,+3V3*%
X147500000Y-84832054D03*
X147500000Y-87000000D03*
X151900000Y-76300000D03*
X151504490Y-82175247D03*
X154927387Y-101087518D03*
X139750000Y-101500000D03*
X163100000Y-70500000D03*
X138975000Y-102100000D03*
X141000000Y-103000000D03*
X131327970Y-100061600D03*
X145800000Y-84950000D03*
X141500000Y-101250000D03*
X140250000Y-101500000D03*
X140750000Y-101250000D03*
X152000000Y-73000000D03*
X146000000Y-83000000D03*
X140500000Y-103000000D03*
X159750000Y-102000000D03*
X142850502Y-88982002D03*
X153589593Y-82653900D03*
X114200000Y-95100000D03*
X139750000Y-102250000D03*
X114100000Y-93300000D03*
X162721084Y-102569645D03*
X139750000Y-102750000D03*
X151000000Y-79700000D03*
X146300000Y-85380000D03*
X135700000Y-102600000D03*
%TO.N,Net-(U1C-NRST_CORE)*%
X148000000Y-86400000D03*
%TO.N,+3.3VP*%
X135512545Y-104151600D03*
X140100000Y-108750000D03*
X135750000Y-110000000D03*
X148750000Y-112250000D03*
%TO.N,+5V*%
X136500000Y-107000000D03*
X136062500Y-103937500D03*
X120000000Y-100500000D03*
X133150000Y-99480000D03*
X131985000Y-109235000D03*
X127925000Y-109000000D03*
X138450000Y-97929014D03*
X135750000Y-107000000D03*
X136550000Y-103950000D03*
X128500000Y-109500000D03*
X136100000Y-107425000D03*
X137000000Y-97500000D03*
X137350000Y-98050000D03*
X128500000Y-108500000D03*
X137750000Y-97500000D03*
X139300000Y-97700000D03*
X128687500Y-104187500D03*
X136450000Y-104400000D03*
X128000000Y-104000000D03*
%TO.N,/Memory/DDR_CK+*%
X124900000Y-83900000D03*
X141000000Y-85400002D03*
%TO.N,/Memory/DDR_CK-*%
X140461374Y-85832472D03*
X125700000Y-83900000D03*
%TO.N,/Memory/CKE*%
X141006047Y-83830792D03*
X125926800Y-82224046D03*
%TO.N,Net-(U3-ZQ)*%
X123827310Y-79081546D03*
X127200000Y-83850000D03*
%TO.N,/Memory/~{RESET}*%
X132949733Y-90991735D03*
X141500000Y-89000000D03*
%TO.N,/Memory/A0*%
X138637694Y-87036946D03*
%TO.N,/Memory/A1*%
X128900000Y-83900000D03*
%TO.N,/Memory/A2*%
X141502350Y-87716738D03*
%TO.N,VTT_DDR*%
X128250000Y-111250000D03*
X129000000Y-111250000D03*
X128650000Y-110850000D03*
%TO.N,/Memory/A3*%
X139550000Y-88050000D03*
%TO.N,/Memory/A4*%
X141507744Y-83488194D03*
%TO.N,/Memory/A5*%
X141432912Y-87222085D03*
%TO.N,/Memory/A6*%
X141553782Y-84180812D03*
%TO.N,/Memory/A7*%
X132444099Y-90618329D03*
X141652867Y-88193548D03*
%TO.N,/Memory/A8*%
X141489859Y-82900143D03*
X131630137Y-82576496D03*
%TO.N,/Memory/A9*%
X130407978Y-87885056D03*
X137900000Y-88896801D03*
%TO.N,/Memory/A10*%
X140945099Y-84876326D03*
%TO.N,/Memory/A11*%
X139267726Y-84459644D03*
%TO.N,/Memory/A12*%
X128219229Y-83916590D03*
%TO.N,/Memory/A13*%
X141103066Y-88381596D03*
%TO.N,/PWR_ON*%
X130200000Y-100600000D03*
X150673224Y-84162684D03*
X147750000Y-100750000D03*
%TO.N,/Memory/~{RAS}*%
X141550000Y-85950000D03*
%TO.N,/Memory/~{CS}*%
X140999998Y-86350000D03*
%TO.N,/Memory/~{WE}*%
X126450000Y-87100000D03*
X138441693Y-86562271D03*
%TO.N,/Memory/ODT*%
X125750000Y-88700000D03*
X139000000Y-86650000D03*
%TO.N,/Memory/BA0*%
X139400000Y-87304187D03*
X127363426Y-87962298D03*
%TO.N,/Memory/BA1*%
X139400000Y-83600000D03*
X128900000Y-83150000D03*
%TO.N,/Memory/BA2*%
X141000000Y-86850000D03*
X128200000Y-87900336D03*
%TO.N,/ETH_3V3*%
X160500000Y-74300000D03*
X161500000Y-78500000D03*
X160300000Y-76500000D03*
%TO.N,VDD_USB*%
X143477848Y-83688641D03*
X129500000Y-98250000D03*
X143800000Y-79600000D03*
X131898398Y-99480000D03*
%TO.N,/SWDIO*%
X144000000Y-94250000D03*
X142065241Y-89255271D03*
%TO.N,/NRST*%
X147235780Y-96310600D03*
X149393280Y-92200000D03*
X148474540Y-88421661D03*
%TO.N,/UART4_TX*%
X146587066Y-82405166D03*
X153729267Y-90499293D03*
%TO.N,/UART4_RX*%
X143806707Y-80980953D03*
X154230869Y-90500001D03*
%TO.N,+1V35*%
X129750000Y-89500000D03*
X122800000Y-92550000D03*
X130300000Y-107000000D03*
X120092928Y-88742335D03*
X120350000Y-82150000D03*
X128144305Y-79005170D03*
X124191861Y-82487586D03*
X124750000Y-106250000D03*
X122271572Y-82049200D03*
X128254608Y-82210048D03*
X124900000Y-76925494D03*
X120500000Y-106500000D03*
X124750000Y-106750000D03*
X124750000Y-105250000D03*
X126519535Y-83026113D03*
X126509991Y-92576152D03*
X123750000Y-84800000D03*
X124900000Y-87900000D03*
X141600697Y-86724506D03*
X130458515Y-82208269D03*
X128402632Y-92497403D03*
X141550000Y-91300000D03*
X129300000Y-104600000D03*
X123650000Y-105550000D03*
X126550000Y-87900000D03*
X125000000Y-107250000D03*
X125825000Y-106750000D03*
X127500000Y-110250000D03*
X119750000Y-79750000D03*
X123067821Y-89147535D03*
X124750000Y-105750000D03*
X119250000Y-88750000D03*
X124788031Y-79076594D03*
X128101034Y-89710621D03*
X141786814Y-85299250D03*
%TO.N,/SDMMC_CLK*%
X147000000Y-112010000D03*
X146141138Y-88904379D03*
%TO.N,/SDMMC_CMD*%
X150250000Y-112010000D03*
X145639376Y-88918615D03*
%TO.N,/SDMMC_D3*%
X143344060Y-88965410D03*
X151250000Y-112151600D03*
%TO.N,/SDMMC_D2*%
X144328664Y-90926749D03*
X152249000Y-112009293D03*
%TO.N,/SDMMC_D1*%
X144500000Y-112010000D03*
X145867064Y-92056524D03*
%TO.N,/SDMMC_D0*%
X145000000Y-111500000D03*
X145624853Y-92601489D03*
%TO.N,/PA0_WAKEUP*%
X147564861Y-84127983D03*
X130436249Y-99754199D03*
X141000000Y-98200000D03*
D23*
%TO.N,/I2C4_SCL*%
X129400000Y-102550000D03*
%TO.N,/I2C4_SDA*%
X129330675Y-102103174D03*
D22*
%TO.N,Net-(U1C-USB_RREF)*%
X142720546Y-82789994D03*
X146485270Y-78274730D03*
%TO.N,/RTC_OUT1*%
X147533975Y-87533975D03*
D23*
X129252919Y-101632957D03*
D22*
%TO.N,/Memory/DQ11*%
X141001103Y-82400000D03*
%TO.N,/Memory/DQ4*%
X140521144Y-89399930D03*
X139700000Y-91800000D03*
%TO.N,/Memory/LDQS+*%
X139609118Y-90747056D03*
%TO.N,/Memory/UDQS-*%
X120203721Y-83902766D03*
%TO.N,/Memory/DQ9*%
X138420231Y-81098307D03*
X140554482Y-82898131D03*
%TO.N,/Memory/DQ13*%
X119000000Y-86950000D03*
X138600000Y-81572568D03*
%TO.N,/Memory/UDM*%
X140500000Y-81868062D03*
%TO.N,/Memory/DQ2*%
X141456236Y-89937312D03*
%TO.N,/Memory/DQ15*%
X141028095Y-81869080D03*
X118500000Y-87900000D03*
%TO.N,/Memory/LDQS-*%
X140445148Y-89898651D03*
%TO.N,Net-(U1A-VDDA1V1_REG)*%
X144200000Y-83600000D03*
%TO.N,Net-(U1A-VDDA1V8_DSI)*%
X144724138Y-83732760D03*
X144200000Y-88139361D03*
X145320228Y-80090312D03*
%TO.N,Net-(U1D-DDR_ZQ)*%
X143702204Y-90902204D03*
X142800000Y-88200000D03*
%TO.N,Net-(U4-PONKEYn)*%
X132048445Y-107213985D03*
%TO.N,VBUS*%
X120750000Y-98000000D03*
%TO.N,Net-(JP2-A)*%
X142879957Y-83516702D03*
X113000000Y-89490000D03*
%TO.N,/Power/VOUT_BST*%
X134500000Y-96651600D03*
X134906276Y-97093724D03*
%TO.N,/VBUS1*%
X118600000Y-75750000D03*
X143150000Y-69200000D03*
%TO.N,/VBUS2*%
X119000000Y-77250000D03*
X123700000Y-72750000D03*
%TO.N,Net-(JP3-A)*%
X114000000Y-88600000D03*
D23*
X143626119Y-82827985D03*
D22*
%TO.N,/Power/~{RST}*%
X147250000Y-97500000D03*
X129900002Y-101338398D03*
%TO.N,/LED_1*%
X155911583Y-73882641D03*
%TO.N,/LED_0*%
X156512012Y-73780030D03*
%TO.N,/MDIO*%
X148053350Y-82898630D03*
X151274207Y-78331600D03*
%TO.N,/RMII_RX_D0*%
X148500000Y-81850000D03*
X149270000Y-76970000D03*
%TO.N,Net-(U6-RXER{slash}PHYAD0)*%
X151275000Y-76740000D03*
%TO.N,Net-(U6-CRS_DV{slash}MODE2)*%
X152275000Y-78240000D03*
%TO.N,/RMII_CRS_DV*%
X148794730Y-80327300D03*
%TO.N,/RMII_TXD_0*%
X156250000Y-79750000D03*
X147935686Y-83384590D03*
%TO.N,/RMII_TX_EN*%
X155748397Y-79750000D03*
X148000000Y-82350000D03*
%TO.N,/PRT1*%
X113900000Y-77200000D03*
X146906484Y-79389048D03*
%TO.N,/PRT2*%
X146657737Y-79824628D03*
X113800000Y-78500000D03*
%TO.N,/USB_~{OC2}*%
X147449863Y-79457510D03*
X120064127Y-75096100D03*
%TO.N,/USB_~{OC1}*%
X146156914Y-79796673D03*
X119753900Y-76000000D03*
%TO.N,/PMIC_SWOUT*%
X120508371Y-95996280D03*
X127500000Y-74601600D03*
X132933536Y-100064195D03*
D23*
%TO.N,Net-(JP4-C)*%
X133409523Y-100039979D03*
D22*
%TO.N,/PMIC_VBUSOTG*%
X134450000Y-100000000D03*
X132450000Y-72393900D03*
X120050000Y-96200000D03*
%TO.N,Net-(U1B-PA13)*%
X149637786Y-84787786D03*
X159500000Y-64200000D03*
%TO.N,Net-(U1B-PA14)*%
X159500000Y-68000000D03*
X151196583Y-84715417D03*
%TO.N,/USB2_D+*%
X141625000Y-72200000D03*
%TO.N,/USB1_D+*%
X121270190Y-73329810D03*
%TO.N,/PA6*%
X148099218Y-80763293D03*
%TO.N,/PF11*%
X147777301Y-80323681D03*
D23*
%TO.N,/PC0*%
X147491399Y-82279352D03*
D22*
%TO.N,/PB0*%
X148500000Y-82350000D03*
%TO.N,/PD11*%
X148000000Y-78800000D03*
X145500000Y-82350000D03*
%TO.N,/PB8*%
X147500812Y-81804443D03*
%TO.N,/PB12*%
X148001813Y-81850000D03*
%TO.N,/PB1*%
X149850000Y-81750000D03*
%TO.N,/PD8*%
X149406815Y-88916913D03*
%TO.N,/PG12*%
X149806099Y-89215823D03*
%TO.N,/PE13*%
X147583260Y-88798138D03*
%TO.N,/PB15*%
X147945100Y-91178217D03*
X145551408Y-89412444D03*
%TO.N,/PA8*%
X147253875Y-91777372D03*
X145578593Y-89913309D03*
%TO.N,/PB4*%
X146427952Y-91210603D03*
%TO.N,/PD0*%
X147001602Y-89349885D03*
%TO.N,/PC6*%
X147542470Y-90350000D03*
%TO.N,/PE12*%
X149833194Y-91322654D03*
X163750000Y-99250000D03*
%TO.N,/PD1*%
X157213857Y-96610060D03*
X149000000Y-91600000D03*
%TO.N,/PG15*%
X149407746Y-90918285D03*
X156950000Y-96150000D03*
%TO.N,/PC2*%
X148441173Y-83837991D03*
%TO.N,/PE2*%
X149000000Y-83800000D03*
%TO.N,/PD15*%
X146141573Y-86911499D03*
%TO.N,/PE15*%
X148083990Y-88840752D03*
%TO.N,/PD4*%
X148002007Y-89399989D03*
%TO.N,/PE0*%
X148510458Y-89394619D03*
%TO.N,/PE6*%
X148585592Y-89890562D03*
%TO.N,/PD7*%
X148083091Y-89894565D03*
%TO.N,/PD5*%
X147500412Y-89402739D03*
%TO.N,/PE5*%
X146246100Y-93239906D03*
%TO.N,/PD3*%
X147231701Y-92577706D03*
%TO.N,/PG6*%
X146824720Y-91517698D03*
%TO.N,/PA15*%
X147700000Y-92900000D03*
X164300000Y-96900000D03*
%TO.N,/PC7*%
X145800000Y-96500000D03*
X144435834Y-89416159D03*
%TO.N,/PB9*%
X156200000Y-96600000D03*
X143450000Y-93150000D03*
X144641613Y-88958717D03*
%TO.N,/PA9*%
X163400000Y-96300000D03*
X146500000Y-89350000D03*
%TO.N,/Memory/~{CAS}*%
X137693121Y-87429508D03*
%TO.N,/Memory/DQ9*%
X120927496Y-85250581D03*
%TO.N,/Memory/DQ6*%
X139623406Y-93726763D03*
X140941880Y-89942620D03*
%TO.N,/Memory/~{CS}*%
X126622906Y-88656307D03*
%TO.N,/Memory/LDM*%
X141020565Y-89408942D03*
%TD*%
D24*
%TO.N,+3V3*%
X142838343Y-88994161D02*
X142850502Y-88982002D01*
X142804503Y-88994161D02*
X142838343Y-88994161D01*
X142800000Y-88989658D02*
X142804503Y-88994161D01*
X142800000Y-88916677D02*
X142800000Y-88989658D01*
X143302600Y-88552600D02*
X143250000Y-88500000D01*
X143250000Y-88500000D02*
X143216677Y-88500000D01*
X143943690Y-88540961D02*
X143932051Y-88552600D01*
X143932051Y-88552600D02*
X143302600Y-88552600D01*
X144288027Y-88552600D02*
X144276388Y-88540961D01*
X144276388Y-88540961D02*
X143943690Y-88540961D01*
X145437442Y-88552600D02*
X144288027Y-88552600D01*
X145473027Y-88517015D02*
X145437442Y-88552600D01*
X145982985Y-88517015D02*
X145473027Y-88517015D01*
X147500000Y-87000000D02*
X145982985Y-88517015D01*
X143216677Y-88500000D02*
X142800000Y-88916677D01*
D25*
%TO.N,Net-(JP8-C)*%
X150522467Y-87822467D02*
X150522467Y-87800002D01*
X153750000Y-91050000D02*
X150522467Y-87822467D01*
X156500000Y-89900000D02*
X155350000Y-91050000D01*
X155350000Y-91050000D02*
X153750000Y-91050000D01*
%TO.N,Net-(JP9-C)*%
X157400000Y-89850000D02*
X158000000Y-89850000D01*
X155900000Y-91350000D02*
X156350000Y-90900000D01*
X153600000Y-91350000D02*
X154050000Y-91350000D01*
X150850000Y-88600000D02*
X153600000Y-91350000D01*
X150228900Y-87978900D02*
X150850000Y-88600000D01*
X149981617Y-87978900D02*
X150228900Y-87978900D01*
X154050000Y-91350000D02*
X155900000Y-91350000D01*
X156350000Y-90900000D02*
X157400000Y-89850000D01*
%TO.N,/PE13*%
X170130000Y-101380000D02*
X170460000Y-101380000D01*
X149822949Y-88323400D02*
X150073400Y-88323400D01*
X149249549Y-87750000D02*
X149822949Y-88323400D01*
X148631398Y-87750000D02*
X149249549Y-87750000D01*
X147583260Y-88798138D02*
X148631398Y-87750000D01*
X155000000Y-93250000D02*
X162000000Y-93250000D01*
X162000000Y-93250000D02*
X170130000Y-101380000D01*
%TO.N,/PD8*%
X149473226Y-88849209D02*
X149406815Y-88915620D01*
X149461530Y-88822069D02*
X149473226Y-88833765D01*
X149473226Y-88833765D02*
X149473226Y-88849209D01*
X149461530Y-88819118D02*
X149461530Y-88822069D01*
X149568024Y-88712624D02*
X149461530Y-88819118D01*
X149892784Y-88712624D02*
X149568024Y-88712624D01*
X150202056Y-89732507D02*
X150202056Y-89021896D01*
X150590600Y-90121051D02*
X150202056Y-89732507D01*
X153869550Y-94000000D02*
X150590600Y-90721050D01*
X160500000Y-94000000D02*
X153869550Y-94000000D01*
X171630000Y-102750000D02*
X169250000Y-102750000D01*
X150202056Y-89021896D02*
X149892784Y-88712624D01*
X173000000Y-101380000D02*
X171630000Y-102750000D01*
X149406815Y-88915620D02*
X149406815Y-88916913D01*
%TO.N,/PE13*%
X150073400Y-88323400D02*
X155000000Y-93250000D01*
%TO.N,/PD8*%
X169250000Y-102750000D02*
X160500000Y-94000000D01*
X150590600Y-90721050D02*
X150590600Y-90121051D01*
D26*
%TO.N,/Memory/LDQS-*%
X123358028Y-87238421D02*
X123129043Y-87009436D01*
X123391363Y-87271756D02*
X123358028Y-87238421D01*
X129752365Y-92835712D02*
X128118246Y-91201594D01*
X123538200Y-87258258D02*
X123524701Y-87271756D01*
X131435712Y-92835712D02*
X129752365Y-92835712D01*
X123869607Y-87750000D02*
X123691376Y-87571769D01*
X126268247Y-91201594D02*
X123869607Y-88802954D01*
X132050000Y-94400000D02*
X132050000Y-93450000D01*
X123704874Y-87291594D02*
X123671538Y-87258258D01*
X123691376Y-87438431D02*
X123704874Y-87424932D01*
X128118246Y-91201594D02*
X126268247Y-91201594D01*
X132819177Y-94635712D02*
X132285712Y-94635712D01*
X123869607Y-88802954D02*
X123869607Y-87750000D01*
X123129043Y-87009436D02*
X123129043Y-87000000D01*
X132285712Y-94635712D02*
X132050000Y-94400000D01*
X132050000Y-93450000D02*
X131435712Y-92835712D01*
X123704874Y-87424932D02*
G75*
G03*
X123704837Y-87291631I-66674J66632D01*
G01*
X123691376Y-87571769D02*
G75*
G02*
X123691376Y-87438431I66624J66669D01*
G01*
X123524701Y-87271756D02*
G75*
G02*
X123391363Y-87271756I-66669J66670D01*
G01*
X123671538Y-87258258D02*
G75*
G03*
X123538200Y-87258258I-66669J-66670D01*
G01*
%TO.N,/Memory/LDQS+*%
X129631711Y-93198406D02*
X128031711Y-91598406D01*
%TO.N,/Memory/LDQS-*%
X134784921Y-93803568D02*
X134584921Y-93803568D01*
%TO.N,/Memory/LDQS+*%
X123393559Y-87738252D02*
X123260411Y-87738252D01*
X131725000Y-94675000D02*
X131725000Y-93625000D01*
%TO.N,/Memory/LDQS-*%
X139235712Y-90947635D02*
X138950000Y-91233347D01*
%TO.N,/Memory/LDQS+*%
X136784921Y-94167856D02*
X136584921Y-94167856D01*
X139609118Y-90747056D02*
X139580026Y-90776148D01*
X133584921Y-95000000D02*
X132819177Y-95000000D01*
%TO.N,/Memory/LDQS-*%
X135784921Y-94635712D02*
X135584921Y-94635712D01*
X136002777Y-94385712D02*
X136002777Y-94417856D01*
%TO.N,/Memory/LDQS+*%
X134784921Y-94167856D02*
X134584921Y-94167856D01*
%TO.N,/Memory/LDQS-*%
X139235712Y-90564288D02*
X139235712Y-90947635D01*
%TO.N,/Memory/LDQS+*%
X131725000Y-93625000D02*
X131298406Y-93198406D01*
X133784921Y-95000000D02*
X133584921Y-95000000D01*
X139580026Y-91219974D02*
X139250000Y-91550000D01*
X139250000Y-91550000D02*
X139250000Y-94000000D01*
X135002777Y-94417856D02*
X135002777Y-94385712D01*
%TO.N,/Memory/LDQS-*%
X133784921Y-94635712D02*
X133584921Y-94635712D01*
%TO.N,/Memory/LDQS+*%
X128031711Y-91598406D02*
X126331711Y-91598406D01*
X132050000Y-95000000D02*
X131725000Y-94675000D01*
X134367065Y-94385712D02*
X134367065Y-94417856D01*
%TO.N,/Memory/LDQS-*%
X140445148Y-89898651D02*
X140443799Y-89900000D01*
%TO.N,/Memory/LDQS+*%
X131298406Y-93198406D02*
X129631711Y-93198406D01*
X135784921Y-95000000D02*
X135584921Y-95000000D01*
X139250000Y-94000000D02*
X138250000Y-95000000D01*
%TO.N,/Memory/LDQS-*%
X134002777Y-94385712D02*
X134002777Y-94417856D01*
X137367065Y-94417856D02*
X137367065Y-94385712D01*
%TO.N,/Memory/LDQS+*%
X137002777Y-94417856D02*
X137002777Y-94385712D01*
%TO.N,/Memory/LDQS-*%
X135367065Y-94417856D02*
X135367065Y-94385712D01*
X136784921Y-93803568D02*
X136584921Y-93803568D01*
X140443799Y-89900000D02*
X139900000Y-89900000D01*
X133584921Y-94635712D02*
X132819177Y-94635712D01*
%TO.N,/Memory/LDQS+*%
X136367065Y-94385712D02*
X136367065Y-94417856D01*
X126331711Y-91598406D02*
X123472795Y-88739490D01*
X123472795Y-87817488D02*
X123393559Y-87738252D01*
X123472795Y-88739490D02*
X123472795Y-87817488D01*
X132819177Y-95000000D02*
X132050000Y-95000000D01*
%TO.N,/Memory/LDQS-*%
X139900000Y-89900000D02*
X139235712Y-90564288D01*
%TO.N,/Memory/LDQS+*%
X139580026Y-90776148D02*
X139580026Y-91219974D01*
%TO.N,/Memory/LDQS-*%
X137864288Y-94635712D02*
X137584921Y-94635712D01*
%TO.N,/Memory/LDQS+*%
X138250000Y-95000000D02*
X137584921Y-95000000D01*
%TO.N,/Memory/LDQS-*%
X138950000Y-91233347D02*
X138950000Y-93550000D01*
X138950000Y-93550000D02*
X137864288Y-94635712D01*
%TO.N,/Memory/LDQS+*%
X136584921Y-94167856D02*
G75*
G03*
X136367056Y-94385712I-21J-217844D01*
G01*
X134367065Y-94417856D02*
G75*
G02*
X133784921Y-95000065I-582165J-44D01*
G01*
%TO.N,/Memory/LDQS-*%
X134584921Y-93803568D02*
G75*
G03*
X134002768Y-94385712I-21J-582132D01*
G01*
X134002777Y-94417856D02*
G75*
G02*
X133784921Y-94635777I-217877J-44D01*
G01*
%TO.N,/Memory/LDQS+*%
X135002777Y-94385712D02*
G75*
G03*
X134784921Y-94167823I-217877J12D01*
G01*
%TO.N,/Memory/LDQS-*%
X136584921Y-93803568D02*
G75*
G03*
X136002768Y-94385712I-21J-582132D01*
G01*
X136002777Y-94417856D02*
G75*
G02*
X135784921Y-94635777I-217877J-44D01*
G01*
%TO.N,/Memory/LDQS+*%
X134584921Y-94167856D02*
G75*
G03*
X134367056Y-94385712I-21J-217844D01*
G01*
X137002777Y-94385712D02*
G75*
G03*
X136784921Y-94167823I-217877J12D01*
G01*
X136367065Y-94417856D02*
G75*
G02*
X135784921Y-95000065I-582165J-44D01*
G01*
X137584921Y-95000000D02*
G75*
G02*
X137002800Y-94417856I-21J582100D01*
G01*
%TO.N,/Memory/LDQS-*%
X135367065Y-94385712D02*
G75*
G03*
X134784921Y-93803535I-582165J12D01*
G01*
X137367065Y-94385712D02*
G75*
G03*
X136784921Y-93803535I-582165J12D01*
G01*
X137584921Y-94635712D02*
G75*
G02*
X137367088Y-94417856I-21J217812D01*
G01*
X135584921Y-94635712D02*
G75*
G02*
X135367088Y-94417856I-21J217812D01*
G01*
%TO.N,/Memory/LDQS+*%
X135584921Y-95000000D02*
G75*
G02*
X135002800Y-94417856I-21J582100D01*
G01*
%TO.N,/Memory/UDM*%
X119000000Y-86150000D02*
X119250000Y-86400000D01*
X119250000Y-85250000D02*
X119000000Y-85500000D01*
X119000000Y-85500000D02*
X119000000Y-86150000D01*
X120400000Y-85250000D02*
X119250000Y-85250000D01*
X122850000Y-82800000D02*
X120400000Y-85250000D01*
X123400000Y-82800000D02*
X122850000Y-82800000D01*
X123705588Y-82194412D02*
X123705588Y-82494412D01*
X125900000Y-80000000D02*
X123705588Y-82194412D01*
X120300000Y-86400000D02*
X120400000Y-86500000D01*
X138316752Y-80716752D02*
X137600000Y-80000000D01*
X138566752Y-80716752D02*
X138316752Y-80716752D01*
X139718062Y-81868062D02*
X138566752Y-80716752D01*
X119250000Y-86400000D02*
X120300000Y-86400000D01*
X137600000Y-80000000D02*
X125900000Y-80000000D01*
X123705588Y-82494412D02*
X123400000Y-82800000D01*
X140500000Y-81868062D02*
X139718062Y-81868062D01*
D25*
%TO.N,/PB8*%
X147545557Y-81804443D02*
X147500812Y-81804443D01*
X148150000Y-81200000D02*
X147545557Y-81804443D01*
X148800000Y-81200000D02*
X148150000Y-81200000D01*
X149800000Y-82200000D02*
X148800000Y-81200000D01*
X150100000Y-82200000D02*
X149800000Y-82200000D01*
X150300000Y-82400000D02*
X150100000Y-82200000D01*
X150529037Y-82400000D02*
X150300000Y-82400000D01*
X151318385Y-83119799D02*
X150599586Y-82401000D01*
X151407484Y-83119800D02*
X151318385Y-83119799D01*
X151880199Y-83592516D02*
X151407484Y-83119800D01*
X151880199Y-83681613D02*
X151880199Y-83592516D01*
X156699587Y-88501000D02*
X151880199Y-83681613D01*
X160251000Y-88501000D02*
X156699587Y-88501000D01*
X171800000Y-97500000D02*
X169250000Y-97500000D01*
X173000000Y-96300000D02*
X171800000Y-97500000D01*
%TO.N,/PC0*%
X147429352Y-82279352D02*
X147491399Y-82279352D01*
X146550000Y-81400000D02*
X147429352Y-82279352D01*
X146550000Y-80600000D02*
X146550000Y-81400000D01*
X147050000Y-80100000D02*
X146550000Y-80600000D01*
X147400000Y-80100000D02*
X147050000Y-80100000D01*
X148050000Y-79450000D02*
X147400000Y-80100000D01*
X149600000Y-79450000D02*
X148050000Y-79450000D01*
X151597947Y-81447947D02*
X149600000Y-79450000D01*
X151805748Y-81447947D02*
X151597947Y-81447947D01*
X152231790Y-82081790D02*
X152231790Y-81873988D01*
X157887600Y-87737600D02*
X152231790Y-82081790D01*
X164237600Y-87737600D02*
X157887600Y-87737600D01*
X168900000Y-92400000D02*
X164237600Y-87737600D01*
X173000000Y-91220000D02*
X171820000Y-92400000D01*
X152231790Y-81873988D02*
X151805748Y-81447947D01*
%TO.N,/PB8*%
X150530037Y-82401000D02*
X150529037Y-82400000D01*
D24*
%TO.N,/UART4_RX*%
X147011786Y-83011786D02*
X148600000Y-84600000D01*
X146051962Y-81400000D02*
X146653149Y-82001187D01*
X146753104Y-82001187D02*
X147011786Y-82259869D01*
X143806707Y-80980953D02*
X144225754Y-81400000D01*
X154200000Y-90000000D02*
X154200000Y-90469837D01*
X146653149Y-82001187D02*
X146753104Y-82001187D01*
X154200000Y-90469837D02*
X154230164Y-90500001D01*
X148800000Y-84600000D02*
X154200000Y-90000000D01*
D25*
%TO.N,/PB8*%
X150599586Y-82401000D02*
X150530037Y-82401000D01*
D24*
%TO.N,/UART4_RX*%
X154230164Y-90500001D02*
X154230869Y-90500001D01*
X147011786Y-82259869D02*
X147011786Y-83011786D01*
D25*
%TO.N,/PC0*%
X171820000Y-92400000D02*
X168900000Y-92400000D01*
D24*
%TO.N,/UART4_RX*%
X148600000Y-84600000D02*
X148800000Y-84600000D01*
D25*
%TO.N,/PB8*%
X169250000Y-97500000D02*
X160251000Y-88501000D01*
D24*
%TO.N,/UART4_RX*%
X144225754Y-81400000D02*
X146051962Y-81400000D01*
D26*
%TO.N,/Memory/UDQS-*%
X134233157Y-79514288D02*
X134765301Y-79514288D01*
%TO.N,/Memory/UDQS+*%
X125852364Y-79714288D02*
X130147635Y-79714288D01*
X134233157Y-79750000D02*
X134765301Y-79750000D01*
X132633157Y-78682144D02*
X133165301Y-78682144D01*
X130183347Y-79750000D02*
X131565301Y-79750000D01*
%TO.N,/Memory/UDQS-*%
X138350000Y-79550000D02*
X139291624Y-80491624D01*
X120203721Y-83902766D02*
X120216644Y-83902766D01*
%TO.N,/Memory/UDQS+*%
X121798406Y-81782184D02*
X122098406Y-81482184D01*
%TO.N,/Memory/UDQS-*%
X122735712Y-79514288D02*
X125719017Y-79514288D01*
X125754729Y-79478576D02*
X130245270Y-79478576D01*
%TO.N,/Memory/UDQS+*%
X130147635Y-79714288D02*
X130183347Y-79750000D01*
%TO.N,/Memory/UDQS-*%
X121401594Y-82717816D02*
X121401594Y-81617816D01*
X125719017Y-79514288D02*
X125754729Y-79478576D01*
X138033348Y-79550000D02*
X138350000Y-79550000D01*
X132633157Y-78446432D02*
X133165301Y-78446432D01*
X120216644Y-83902766D02*
X121401594Y-82717816D01*
%TO.N,/Memory/UDQS+*%
X138025000Y-79875000D02*
X138498530Y-80348530D01*
X125816652Y-79750000D02*
X125852364Y-79714288D01*
%TO.N,/Memory/UDQS-*%
X121701594Y-81317816D02*
X121701594Y-80548406D01*
%TO.N,/Memory/UDQS+*%
X137900000Y-79750000D02*
X138025000Y-79875000D01*
%TO.N,/Memory/UDQS-*%
X121701594Y-80548406D02*
X122735712Y-79514288D01*
X121401594Y-81617816D02*
X121701594Y-81317816D01*
%TO.N,/Memory/UDQS+*%
X121504670Y-83195330D02*
X121798406Y-82901594D01*
%TO.N,/Memory/UDQS-*%
X137997635Y-79514288D02*
X138033348Y-79550000D01*
%TO.N,/Memory/UDQS+*%
X138498530Y-80348530D02*
X138628762Y-80348530D01*
%TO.N,/Memory/UDQS-*%
X134765301Y-79514288D02*
X137997635Y-79514288D01*
%TO.N,/Memory/UDQS+*%
X134765301Y-79750000D02*
X137900000Y-79750000D01*
X121798406Y-82901594D02*
X121798406Y-81782184D01*
%TO.N,/Memory/UDQS-*%
X130280983Y-79514288D02*
X131565301Y-79514288D01*
X130245270Y-79478576D02*
X130280983Y-79514288D01*
X139291624Y-80491624D02*
X139291624Y-80913547D01*
%TO.N,/Memory/UDQS+*%
X123050000Y-79750000D02*
X125816652Y-79750000D01*
X122098406Y-80701594D02*
X123050000Y-79750000D01*
X122098406Y-81482184D02*
X122098406Y-80701594D01*
X131565301Y-79750000D02*
G75*
G03*
X132217100Y-79098216I-1J651800D01*
G01*
X133581373Y-79098216D02*
G75*
G03*
X134233157Y-79750027I651827J16D01*
G01*
%TO.N,/Memory/UDQS-*%
X131565301Y-79514288D02*
G75*
G03*
X131981388Y-79098216I-1J416088D01*
G01*
X133817085Y-79098216D02*
G75*
G03*
X134233157Y-79514315I416115J16D01*
G01*
X131981373Y-79098216D02*
G75*
G02*
X132633157Y-78446373I651827J16D01*
G01*
X133165301Y-78446432D02*
G75*
G02*
X133817068Y-79098216I-1J-651768D01*
G01*
%TO.N,/Memory/UDQS+*%
X133165301Y-78682144D02*
G75*
G02*
X133581356Y-79098216I-1J-416056D01*
G01*
X132217085Y-79098216D02*
G75*
G02*
X132633157Y-78682085I416115J16D01*
G01*
X121582846Y-83669486D02*
X121533347Y-83718986D01*
X121009695Y-83690306D02*
X121009694Y-83690306D01*
X121087852Y-84164444D02*
X121038353Y-84213944D01*
X121059192Y-83640811D02*
X121009695Y-83690306D01*
X121335357Y-83718986D02*
X121257182Y-83640811D01*
X120514719Y-84185282D02*
X120350000Y-84350000D01*
X120564216Y-84135787D02*
X120514719Y-84185282D01*
X120350000Y-84350000D02*
X120350000Y-84700000D01*
X121009694Y-83888296D02*
X121087852Y-83966454D01*
X121504670Y-83393320D02*
X121582846Y-83471496D01*
X120840363Y-84213944D02*
X120762206Y-84135787D01*
X121257182Y-83640811D02*
G75*
G03*
X121059192Y-83640811I-98995J-98995D01*
G01*
X120762206Y-84135787D02*
G75*
G03*
X120564216Y-84135787I-98995J-98995D01*
G01*
X121038353Y-84213944D02*
G75*
G02*
X120840363Y-84213944I-98995J98995D01*
G01*
X121009694Y-83690306D02*
G75*
G03*
X121009695Y-83888295I99006J-98994D01*
G01*
X121582846Y-83471496D02*
G75*
G02*
X121582855Y-83669495I-98946J-99004D01*
G01*
X121087852Y-83966454D02*
G75*
G02*
X121087803Y-84164395I-98952J-98946D01*
G01*
X121504670Y-83195330D02*
G75*
G03*
X121504695Y-83393295I99030J-98970D01*
G01*
X121533347Y-83718986D02*
G75*
G02*
X121335357Y-83718986I-98995J98995D01*
G01*
%TO.N,/Memory/DQ15*%
X141862752Y-82703737D02*
X141028095Y-81869080D01*
X141862752Y-82896960D02*
X141862752Y-82703737D01*
X141926689Y-82960897D02*
X141862752Y-82896960D01*
X141926689Y-84335276D02*
X141926689Y-82960897D01*
X141270366Y-84500000D02*
X141324085Y-84553719D01*
X141708246Y-84553719D02*
X141926689Y-84335276D01*
X140266447Y-84833553D02*
X140600000Y-84500000D01*
X141324085Y-84553719D02*
X141708246Y-84553719D01*
X135016900Y-84833553D02*
X140266447Y-84833553D01*
X127628161Y-84833553D02*
X127797425Y-84664288D01*
X127613154Y-84833553D02*
X127628161Y-84833553D01*
X127551649Y-84895058D02*
X127613154Y-84833553D01*
X127121594Y-84895058D02*
X127551649Y-84895058D01*
X127024007Y-84992646D02*
X127121594Y-84895058D01*
X122550000Y-86750000D02*
X123073406Y-86226594D01*
X122175761Y-86750000D02*
X122550000Y-86750000D01*
X121025761Y-87900000D02*
X122175761Y-86750000D01*
X140600000Y-84500000D02*
X141270366Y-84500000D01*
X123073406Y-86226594D02*
X124873406Y-86226594D01*
X127797425Y-84664288D02*
X134847635Y-84664288D01*
X126107354Y-84992646D02*
X127024007Y-84992646D01*
X134847635Y-84664288D02*
X135016900Y-84833553D01*
X124873406Y-86226594D02*
X126107354Y-84992646D01*
X118500000Y-87900000D02*
X121025761Y-87900000D01*
%TO.N,/Memory/DQ11*%
X140600000Y-83400000D02*
X141001103Y-82998897D01*
X140524276Y-83400000D02*
X140600000Y-83400000D01*
X139112138Y-81987862D02*
X140524276Y-83400000D01*
X137651839Y-81698161D02*
X137941539Y-81987862D01*
X136050000Y-81400000D02*
X136348161Y-81698161D01*
X137941539Y-81987862D02*
X139112138Y-81987862D01*
X135500000Y-81000000D02*
X135900000Y-81000000D01*
X136050000Y-81150000D02*
X136050000Y-81400000D01*
X135400000Y-81100000D02*
X135500000Y-81000000D01*
X141001103Y-82998897D02*
X141001103Y-82400000D01*
X135400000Y-81600000D02*
X135400000Y-81100000D01*
X136348161Y-81698161D02*
X137651839Y-81698161D01*
X135350000Y-81650000D02*
X135400000Y-81600000D01*
X134850000Y-81650000D02*
X135350000Y-81650000D01*
X134200000Y-81000000D02*
X134850000Y-81650000D01*
X135900000Y-81000000D02*
X136050000Y-81150000D01*
X129840117Y-81000000D02*
X134200000Y-81000000D01*
X128978929Y-81861188D02*
X129840117Y-81000000D01*
X127846323Y-83675694D02*
X128978929Y-82543088D01*
X128978929Y-82543088D02*
X128978929Y-81861188D01*
X127846323Y-84249768D02*
X127846323Y-83675694D01*
X127436745Y-84659346D02*
X127846323Y-84249768D01*
X125899216Y-84659346D02*
X127436745Y-84659346D01*
X124708562Y-85850000D02*
X125899216Y-84659346D01*
X121503445Y-86246555D02*
X122453445Y-86246555D01*
X122850000Y-85850000D02*
X124708562Y-85850000D01*
X122453445Y-86246555D02*
X122850000Y-85850000D01*
X121300000Y-86450000D02*
X121503445Y-86246555D01*
%TO.N,/Memory/DQ13*%
X137972568Y-81572568D02*
X138600000Y-81572568D01*
X137100000Y-80700000D02*
X137972568Y-81572568D01*
X129250000Y-80700000D02*
X137100000Y-80700000D01*
X128724841Y-82446560D02*
X128724841Y-81225159D01*
X127598400Y-83573001D02*
X128724841Y-82446560D01*
X127598400Y-84149337D02*
X127598400Y-83573001D01*
X127324103Y-84423634D02*
X127598400Y-84149337D01*
X124976366Y-84423634D02*
X127324103Y-84423634D01*
X128724841Y-81225159D02*
X129250000Y-80700000D01*
X124050000Y-85350000D02*
X124976366Y-84423634D01*
X122750000Y-85350000D02*
X124050000Y-85350000D01*
X122344830Y-85755170D02*
X122750000Y-85350000D01*
X120823406Y-85826594D02*
X120894830Y-85755170D01*
X120823406Y-86754670D02*
X120823406Y-85826594D01*
X120604670Y-86973406D02*
X120823406Y-86754670D01*
X120295330Y-86973406D02*
X120604670Y-86973406D01*
X120071924Y-86750000D02*
X120295330Y-86973406D01*
X119200000Y-86750000D02*
X120071924Y-86750000D01*
X119000000Y-86950000D02*
X119200000Y-86750000D01*
X120894830Y-85755170D02*
X122344830Y-85755170D01*
%TO.N,/Memory/LDM*%
X124150000Y-87000000D02*
X123750000Y-86600000D01*
X126300000Y-90900000D02*
X124150000Y-88750000D01*
X128150000Y-90900000D02*
X126300000Y-90900000D01*
X129850000Y-92600000D02*
X128150000Y-90900000D01*
X133300000Y-93550000D02*
X132350000Y-92600000D01*
X132350000Y-92600000D02*
X129850000Y-92600000D01*
X137400000Y-93550000D02*
X133300000Y-93550000D01*
X138650000Y-92300000D02*
X137400000Y-93550000D01*
X138950000Y-90350000D02*
X138950000Y-90900000D01*
X139450000Y-89850000D02*
X138950000Y-90350000D01*
X139450000Y-89500000D02*
X139450000Y-89850000D01*
X140050000Y-88900000D02*
X139450000Y-89500000D01*
X138650000Y-91200000D02*
X138650000Y-92300000D01*
X140550000Y-88900000D02*
X140050000Y-88900000D01*
X124150000Y-88750000D02*
X124150000Y-87000000D01*
X138950000Y-90900000D02*
X138650000Y-91200000D01*
X141020565Y-89370565D02*
X141020565Y-89408942D01*
D27*
X140550000Y-88900000D02*
X141020565Y-89370565D01*
D26*
%TO.N,/Memory/A7*%
X141497662Y-88193548D02*
X141652867Y-88193548D01*
X141347882Y-88089655D02*
X141393769Y-88089655D01*
X141393769Y-88089655D02*
X141497662Y-88193548D01*
X141258227Y-88000000D02*
X141347882Y-88089655D01*
X140700000Y-88250000D02*
X140950000Y-88000000D01*
X138714288Y-90252364D02*
X139150000Y-89816652D01*
X140350000Y-88250000D02*
X140700000Y-88250000D01*
X138225000Y-92125000D02*
X138225000Y-90975000D01*
X139150000Y-89450000D02*
X140350000Y-88250000D01*
X133800000Y-93000000D02*
X137350000Y-93000000D01*
X133350000Y-92350000D02*
X133350000Y-92550000D01*
X140950000Y-88000000D02*
X141258227Y-88000000D01*
X133450000Y-92250000D02*
X133350000Y-92350000D01*
X134200000Y-92700000D02*
X133750000Y-92250000D01*
X137050000Y-92700000D02*
X134200000Y-92700000D01*
X137900000Y-91850000D02*
X137050000Y-92700000D01*
X137900000Y-91600000D02*
X137900000Y-91850000D01*
X137450000Y-91400000D02*
X137700000Y-91400000D01*
X137700000Y-91400000D02*
X137900000Y-91600000D01*
X133750000Y-92250000D02*
X133450000Y-92250000D01*
X136450000Y-92400000D02*
X137450000Y-91400000D01*
X133350000Y-92550000D02*
X133800000Y-93000000D01*
X132750000Y-91700000D02*
X133900000Y-91700000D01*
X138714288Y-90485712D02*
X138714288Y-90252364D01*
X133900000Y-91700000D02*
X134600000Y-92400000D01*
X138225000Y-90975000D02*
X138714288Y-90485712D01*
X134600000Y-92400000D02*
X136450000Y-92400000D01*
X132444099Y-91394099D02*
X132750000Y-91700000D01*
X137350000Y-93000000D02*
X138225000Y-92125000D01*
X132444099Y-90618329D02*
X132444099Y-91394099D01*
X139150000Y-89816652D02*
X139150000Y-89450000D01*
%TO.N,/Memory/DQ9*%
X137566653Y-80400000D02*
X138264960Y-81098307D01*
X126500000Y-80400000D02*
X137566653Y-80400000D01*
X125907765Y-81457765D02*
X125907765Y-80992235D01*
X138264960Y-81098307D02*
X138420231Y-81098307D01*
X120927496Y-85250581D02*
X120954992Y-85223085D01*
X120954992Y-85223085D02*
X122142444Y-85223085D01*
X125907765Y-80992235D02*
X126500000Y-80400000D01*
X122142444Y-85223085D02*
X125907765Y-81457765D01*
%TO.N,/Memory/BA1*%
X137750000Y-82300000D02*
X137550000Y-82100000D01*
X137643285Y-82656715D02*
X137750000Y-82550000D01*
X136950000Y-82650000D02*
X136956715Y-82656715D01*
X134650000Y-82650000D02*
X136950000Y-82650000D01*
X133750000Y-81750000D02*
X134650000Y-82650000D01*
X132500000Y-81750000D02*
X133750000Y-81750000D01*
X132400000Y-81850000D02*
X132500000Y-81750000D01*
X136956715Y-82656715D02*
X137643285Y-82656715D01*
X132400000Y-82000000D02*
X132400000Y-81850000D01*
X132500000Y-82100000D02*
X132400000Y-82000000D01*
X137550000Y-82100000D02*
X137100000Y-82100000D01*
X133050000Y-82400000D02*
X132750000Y-82100000D01*
X132900000Y-82550000D02*
X133050000Y-82400000D01*
X132000000Y-82550000D02*
X132900000Y-82550000D01*
X132950000Y-83100000D02*
X132150000Y-83100000D01*
X137750000Y-82550000D02*
X137750000Y-82300000D01*
X132150000Y-83100000D02*
X132000000Y-82950000D01*
X132750000Y-82100000D02*
X132500000Y-82100000D01*
X133250000Y-82800000D02*
X132950000Y-83100000D01*
X132000000Y-82950000D02*
X132000000Y-82550000D01*
X133950000Y-82800000D02*
X133250000Y-82800000D01*
X134000000Y-82850000D02*
X133950000Y-82800000D01*
%TO.N,/Memory/ODT*%
X139000000Y-89100000D02*
X139000000Y-88675725D01*
X136150000Y-91950000D02*
X139000000Y-89100000D01*
X134800000Y-91950000D02*
X136150000Y-91950000D01*
X134150000Y-91300000D02*
X134800000Y-91950000D01*
X133500000Y-91300000D02*
X134150000Y-91300000D01*
X133500000Y-91150000D02*
X133500000Y-91300000D01*
X133750000Y-90900000D02*
X133500000Y-91150000D01*
X134350000Y-90900000D02*
X133750000Y-90900000D01*
X134475000Y-91025000D02*
X134350000Y-90900000D01*
X134575000Y-91025000D02*
X134475000Y-91025000D01*
X134800000Y-90800000D02*
X134575000Y-91025000D01*
X134800000Y-90700000D02*
X134800000Y-90800000D01*
X134625000Y-90525000D02*
X134800000Y-90700000D01*
X133375000Y-90525000D02*
X134625000Y-90525000D01*
X133050000Y-90200000D02*
X133375000Y-90525000D01*
%TO.N,/Memory/~{WE}*%
X137411311Y-86188689D02*
X137561311Y-86188689D01*
X137316077Y-86283923D02*
X137411311Y-86188689D01*
X137316077Y-86433923D02*
X137316077Y-86283923D01*
X137350000Y-86467846D02*
X137316077Y-86433923D01*
X136523583Y-86826417D02*
X137173583Y-86826417D01*
X136250000Y-87100000D02*
X136523583Y-86826417D01*
X133750000Y-87100000D02*
X136250000Y-87100000D01*
X133562500Y-87287500D02*
X133750000Y-87100000D01*
X133725000Y-87450000D02*
X133562500Y-87287500D01*
X136150000Y-87450000D02*
X133725000Y-87450000D01*
X133250000Y-87800000D02*
X135900000Y-87800000D01*
X135900000Y-87800000D02*
X136150000Y-87550000D01*
X137173583Y-86826417D02*
X137350000Y-86650000D01*
X132225000Y-87150000D02*
X132525000Y-87450000D01*
X136150000Y-87550000D02*
X136150000Y-87450000D01*
X130110000Y-87150000D02*
X132225000Y-87150000D01*
X132900000Y-87450000D02*
X133250000Y-87800000D01*
X137350000Y-86650000D02*
X137350000Y-86467846D01*
X129932572Y-87327428D02*
X130110000Y-87150000D01*
X132525000Y-87450000D02*
X132900000Y-87450000D01*
%TO.N,/Memory/~{CAS}*%
X132300000Y-89900000D02*
X131522907Y-89122907D01*
X133650000Y-89900000D02*
X132300000Y-89900000D01*
X133950000Y-90200000D02*
X133650000Y-89900000D01*
X131522907Y-89122907D02*
X127775243Y-89122907D01*
X135950000Y-91550000D02*
X135700000Y-91550000D01*
X135050000Y-90200000D02*
X133950000Y-90200000D01*
X137150000Y-90350000D02*
X135950000Y-91550000D01*
X136650000Y-90200000D02*
X137150000Y-90200000D01*
X137150000Y-90200000D02*
X137150000Y-90350000D01*
X136200000Y-90650000D02*
X136650000Y-90200000D01*
X135600000Y-90050000D02*
X136200000Y-90650000D01*
X135600000Y-90000000D02*
X135600000Y-90050000D01*
X135700000Y-89900000D02*
X135600000Y-90000000D01*
X135700000Y-91550000D02*
X135600000Y-91450000D01*
X136850000Y-89900000D02*
X135700000Y-89900000D01*
X137000000Y-89750000D02*
X136850000Y-89900000D01*
X133950000Y-89750000D02*
X135300000Y-89750000D01*
X133650000Y-89450000D02*
X133950000Y-89750000D01*
X135600000Y-91450000D02*
X135600000Y-90750000D01*
X135300000Y-89750000D02*
X135550000Y-89500000D01*
X135550000Y-89500000D02*
X137000000Y-89500000D01*
X135600000Y-90750000D02*
X135050000Y-90200000D01*
X137000000Y-89500000D02*
X137000000Y-89750000D01*
X133650000Y-89200000D02*
X133650000Y-89450000D01*
X137672629Y-89200000D02*
X133650000Y-89200000D01*
X137745536Y-89272907D02*
X137672629Y-89200000D01*
X126177829Y-87377829D02*
X125850000Y-87050000D01*
X126177829Y-87525493D02*
X126177829Y-87377829D01*
%TO.N,/Memory/~{RAS}*%
X133175000Y-85325000D02*
X129275000Y-85325000D01*
X133350000Y-85150000D02*
X133175000Y-85325000D01*
X133250000Y-85050000D02*
X133350000Y-85150000D01*
X129200000Y-85050000D02*
X133250000Y-85050000D01*
X125234293Y-86900000D02*
X124900000Y-86900000D01*
%TO.N,/Memory/A6*%
X140826306Y-84253677D02*
X141480917Y-84253677D01*
X140572623Y-83999994D02*
X140826306Y-84253677D01*
X139199994Y-83999994D02*
X140572623Y-83999994D01*
X138900000Y-83700000D02*
X139199994Y-83999994D01*
X136650000Y-83700000D02*
X138900000Y-83700000D01*
X136450000Y-83500000D02*
X136650000Y-83700000D01*
X132100000Y-83500000D02*
X136450000Y-83500000D01*
X131825000Y-83225000D02*
X132100000Y-83500000D01*
X131112291Y-82712291D02*
X131625000Y-83225000D01*
X130087709Y-82712291D02*
X131112291Y-82712291D01*
X129900000Y-82900000D02*
X130087709Y-82712291D01*
X129900000Y-83250000D02*
X129900000Y-82900000D01*
X130150000Y-83500000D02*
X129900000Y-83250000D01*
X131700000Y-83500000D02*
X130150000Y-83500000D01*
X131950000Y-83750000D02*
X131700000Y-83500000D01*
X141480917Y-84253677D02*
X141553782Y-84180812D01*
X131950000Y-83800000D02*
X131950000Y-83750000D01*
X132200000Y-84050000D02*
X131950000Y-83800000D01*
X136787500Y-84050000D02*
X132200000Y-84050000D01*
X130825462Y-83900000D02*
X130862731Y-83862731D01*
X130600000Y-83900000D02*
X130825462Y-83900000D01*
X130862731Y-83862731D02*
X131400000Y-84400000D01*
X131400000Y-84400000D02*
X137137500Y-84400000D01*
X131625000Y-83225000D02*
X131825000Y-83225000D01*
X137137500Y-84400000D02*
X136787500Y-84050000D01*
%TO.N,/Memory/A2*%
X130800000Y-86829983D02*
X132839983Y-86829983D01*
X130639992Y-86669975D02*
X130800000Y-86829983D01*
X130639992Y-86639992D02*
X130639992Y-86669975D01*
X130900000Y-86379984D02*
X130639992Y-86639992D01*
X135850000Y-86350000D02*
X130900000Y-86350000D01*
X130900000Y-86350000D02*
X130900000Y-86379984D01*
X129550000Y-86050000D02*
X134650000Y-86050000D01*
X128867190Y-86732810D02*
X129550000Y-86050000D01*
X134650000Y-86050000D02*
X135100000Y-85600000D01*
X136500000Y-85600000D02*
X136550000Y-85650000D01*
X136550000Y-85650000D02*
X135850000Y-86350000D01*
X128867190Y-86844974D02*
X128867190Y-86732810D01*
X128748521Y-86963643D02*
X128867190Y-86844974D01*
X135100000Y-85600000D02*
X136500000Y-85600000D01*
%TO.N,/Memory/~{WE}*%
X127150000Y-86950000D02*
X127800000Y-86300000D01*
X127800000Y-86300000D02*
X128264814Y-86300000D01*
X127300000Y-87100000D02*
X127150000Y-86950000D01*
X127700000Y-87100000D02*
X127300000Y-87100000D01*
%TO.N,/Memory/~{RAS}*%
X134250000Y-85700000D02*
X129400000Y-85700000D01*
X134800000Y-85150000D02*
X134250000Y-85700000D01*
X135500000Y-85150000D02*
X134800000Y-85150000D01*
X136700000Y-85150000D02*
X136719229Y-85130771D01*
X135650000Y-85150000D02*
X136700000Y-85150000D01*
X125734293Y-86400000D02*
X125502536Y-86631757D01*
X125940774Y-86409227D02*
X125931547Y-86400000D01*
X125931547Y-86400000D02*
X125734293Y-86400000D01*
X127219230Y-85130770D02*
X125940774Y-86409227D01*
X127664291Y-85130770D02*
X127219230Y-85130770D01*
%TO.N,/Memory/BA1*%
X129740733Y-81450000D02*
X129490733Y-81700000D01*
X134050000Y-81450000D02*
X129740733Y-81450000D01*
X134300000Y-81700000D02*
X134050000Y-81450000D01*
X134075000Y-82925000D02*
X134200000Y-83050000D01*
%TO.N,/Memory/ODT*%
X128462907Y-90612907D02*
X127662907Y-90612907D01*
X129500000Y-91650000D02*
X128462907Y-90612907D01*
X131450000Y-91500000D02*
X131450000Y-91650000D01*
X131450000Y-91650000D02*
X129500000Y-91650000D01*
X129850000Y-91150000D02*
X131100000Y-91150000D01*
X129400000Y-90700000D02*
X129850000Y-91150000D01*
X131100000Y-91150000D02*
X131450000Y-91500000D01*
X129487093Y-90612907D02*
X129400000Y-90700000D01*
X131920551Y-90612907D02*
X129487093Y-90612907D01*
%TO.N,/Memory/A9*%
X137853199Y-88850000D02*
X137900000Y-88896801D01*
X131000000Y-88850000D02*
X137853199Y-88850000D01*
X137300000Y-88500000D02*
X131150000Y-88500000D01*
X131150000Y-88500000D02*
X130900000Y-88750000D01*
X137500000Y-88300000D02*
X137300000Y-88500000D01*
X130900000Y-88750000D02*
X131000000Y-88850000D01*
X137300000Y-88100000D02*
X137500000Y-88300000D01*
X132206600Y-88100000D02*
X137300000Y-88100000D01*
X131910292Y-87803692D02*
X132206600Y-88100000D01*
X131910292Y-87597093D02*
X131910292Y-87803692D01*
%TO.N,/Memory/~{RAS}*%
X136719229Y-85130771D02*
X136730771Y-85130771D01*
X135500000Y-85150000D02*
X135650000Y-85150000D01*
X129000000Y-85600000D02*
X129000000Y-85650000D01*
X129275000Y-85325000D02*
X129000000Y-85600000D01*
X127664291Y-85130770D02*
X127745061Y-85050000D01*
X127745061Y-85050000D02*
X129200000Y-85050000D01*
X129000000Y-85650000D02*
X129050000Y-85700000D01*
X129050000Y-85700000D02*
X129400000Y-85700000D01*
%TO.N,/Memory/BA1*%
X134700000Y-82100000D02*
X134300000Y-81700000D01*
X137100000Y-82100000D02*
X134700000Y-82100000D01*
X134075000Y-82925000D02*
X134000000Y-82850000D01*
X137000000Y-83050000D02*
X134200000Y-83050000D01*
X137350000Y-83400000D02*
X137000000Y-83050000D01*
X137800000Y-83400000D02*
X137350000Y-83400000D01*
D24*
%TO.N,VREF_DDR*%
X128000000Y-102500000D02*
X131336737Y-105836737D01*
X131336737Y-105836737D02*
X131336737Y-107336737D01*
X124300000Y-91850000D02*
X128000000Y-95550000D01*
X128000000Y-98000000D02*
X128000000Y-102500000D01*
X128000000Y-95550000D02*
X128000000Y-98000000D01*
D26*
%TO.N,/Memory/A2*%
X137368166Y-85377093D02*
X138254464Y-85377093D01*
X132839983Y-86829983D02*
X135915276Y-86829983D01*
X138254464Y-85377093D02*
X139496524Y-86619153D01*
X140944109Y-87716738D02*
X141502350Y-87716738D01*
X135915276Y-86829983D02*
X137368166Y-85377093D01*
X139846524Y-86619153D02*
X140944109Y-87716738D01*
X139496524Y-86619153D02*
X139846524Y-86619153D01*
%TO.N,/Memory/~{WE}*%
X128572572Y-87491470D02*
X128652572Y-87411470D01*
X129132572Y-87163386D02*
X129372572Y-87163386D01*
X127900000Y-85500000D02*
X128200000Y-85500000D01*
X128252572Y-87407428D02*
X128252572Y-87411470D01*
X128732572Y-87327428D02*
X128972572Y-87327428D01*
X129452572Y-87243386D02*
X129452572Y-88161470D01*
X129452572Y-88161470D02*
X129532572Y-88241470D01*
X126450000Y-86950000D02*
X127900000Y-85500000D01*
X128700000Y-86000000D02*
X128700000Y-86200000D01*
X129052572Y-87243386D02*
X129132572Y-87163386D01*
X128700000Y-86200000D02*
X128600000Y-86300000D01*
X127700000Y-87100000D02*
X127927428Y-87327428D01*
X127927428Y-87327428D02*
X128172572Y-87327428D01*
X128600000Y-86300000D02*
X128264814Y-86300000D01*
X128172572Y-87327428D02*
X128252572Y-87407428D01*
X129772572Y-88241470D02*
X129852572Y-88161470D01*
X137934894Y-86562271D02*
X138441693Y-86562271D01*
X128652572Y-87407428D02*
X128732572Y-87327428D01*
X129852572Y-87407428D02*
X129932572Y-87327428D01*
X128972572Y-87327428D02*
X129052572Y-87247428D01*
X128200000Y-85500000D02*
X128700000Y-86000000D01*
X129052572Y-87247428D02*
X129052572Y-87243386D01*
X129852572Y-88161470D02*
X129852572Y-87407428D01*
X128652572Y-87411470D02*
X128652572Y-87407428D01*
X128332572Y-87491470D02*
X128572572Y-87491470D01*
X126450000Y-87100000D02*
X126450000Y-86950000D01*
X137561311Y-86188689D02*
X137934894Y-86562271D01*
X129532572Y-88241470D02*
X129772572Y-88241470D01*
X128252572Y-87411470D02*
X128332572Y-87491470D01*
X129372572Y-87163386D02*
X129452572Y-87243386D01*
%TO.N,/Memory/ODT*%
X127662907Y-90612907D02*
X125750000Y-88700000D01*
X133050000Y-90200000D02*
X132333458Y-90200000D01*
X139000000Y-86650000D02*
X139000000Y-88675725D01*
X132333458Y-90200000D02*
X131920551Y-90612907D01*
D24*
%TO.N,VDD_USB*%
X131730000Y-99480000D02*
X131898398Y-99480000D01*
X130500000Y-98250000D02*
X131730000Y-99480000D01*
X129500000Y-98250000D02*
X130500000Y-98250000D01*
%TO.N,/UART4_TX*%
X153644730Y-89871256D02*
X153644730Y-90551040D01*
X149086737Y-85313263D02*
X153644730Y-89871256D01*
X153644730Y-90551040D02*
X153644921Y-90551231D01*
X153700572Y-90500000D02*
X153728560Y-90500000D01*
X153728560Y-90500000D02*
X153729267Y-90499293D01*
X147098400Y-85098400D02*
X147400000Y-85400000D01*
X153644921Y-90551231D02*
X153649341Y-90551231D01*
X148886737Y-85313263D02*
X149086737Y-85313263D01*
X146587066Y-82405166D02*
X146500000Y-82492232D01*
X147098400Y-83524926D02*
X147098400Y-85098400D01*
X153649341Y-90551231D02*
X153700572Y-90500000D01*
X146500000Y-82926526D02*
X147098400Y-83524926D01*
X146500000Y-82492232D02*
X146500000Y-82926526D01*
X148800000Y-85400000D02*
X148886737Y-85313263D01*
X147400000Y-85400000D02*
X148800000Y-85400000D01*
%TO.N,/SDMMC_CLK*%
X145223253Y-92435140D02*
X145347735Y-92310658D01*
X146100000Y-89467949D02*
X146098400Y-89466349D01*
X145254388Y-92798973D02*
X145223253Y-92767838D01*
X147000000Y-112010000D02*
X147319999Y-112010000D01*
X148611599Y-113301600D02*
X152379401Y-113301601D01*
X149063010Y-95003200D02*
X146950146Y-95003200D01*
X153254800Y-112426203D02*
X153254800Y-99194990D01*
X147319999Y-112010000D02*
X148611599Y-113301600D01*
X146098400Y-89466349D02*
X146098400Y-88947117D01*
X145598400Y-91663634D02*
X145598400Y-90683649D01*
X146098400Y-88947117D02*
X146141138Y-88904379D01*
X145275396Y-92841911D02*
X145254388Y-92820903D01*
X153254800Y-99194990D02*
X149063010Y-95003200D01*
X145347735Y-91914299D02*
X145598400Y-91663634D01*
X145598400Y-90683649D02*
X146100000Y-90182049D01*
X145347735Y-92310658D02*
X145347735Y-91914299D01*
X146950146Y-95003200D02*
X145347735Y-93400787D01*
X145347735Y-93400787D02*
X145347735Y-92914373D01*
X146100000Y-90182049D02*
X146100000Y-89467949D01*
X145223253Y-92767838D02*
X145223253Y-92435140D01*
X145275396Y-92842034D02*
X145275396Y-92841911D01*
X152379401Y-113301601D02*
X153254800Y-112426203D01*
X145254388Y-92820903D02*
X145254388Y-92798973D01*
X145347735Y-92914373D02*
X145275396Y-92842034D01*
%TO.N,/SDMMC_CMD*%
X152254475Y-113000000D02*
X152953200Y-112301276D01*
X145427000Y-88918615D02*
X145639376Y-88918615D01*
X144921653Y-92310214D02*
X145046135Y-92185731D01*
X144952788Y-92945829D02*
X144952788Y-92923900D01*
X145225000Y-91610508D02*
X145225000Y-90125844D01*
X150250000Y-112010000D02*
X151240000Y-113000000D01*
X151240000Y-113000000D02*
X152254475Y-113000000D01*
X145046134Y-93039299D02*
X144973796Y-92966960D01*
X152953200Y-99319916D02*
X148938084Y-95304800D01*
X144973796Y-92966838D02*
X144952788Y-92945829D01*
X144973796Y-92966960D02*
X144973796Y-92966838D01*
X145225000Y-90125844D02*
X145095543Y-89996387D01*
X148938084Y-95304800D02*
X146825219Y-95304800D01*
X144921653Y-92892764D02*
X144921653Y-92310214D01*
X152953200Y-112301276D02*
X152953200Y-99319916D01*
X145095543Y-89996387D02*
X145095543Y-89250072D01*
X146825219Y-95304800D02*
X145046135Y-93525714D01*
X145095543Y-89250072D02*
X145427000Y-88918615D01*
X145046135Y-92185731D02*
X145046135Y-91789373D01*
X145046135Y-93525714D02*
X145046134Y-93039299D01*
X144952788Y-92923900D02*
X144921653Y-92892764D01*
X145046135Y-91789373D02*
X145225000Y-91610508D01*
%TO.N,/SDMMC_D3*%
X144744533Y-93164224D02*
X144672195Y-93091885D01*
X144850000Y-91558981D02*
X144850000Y-90400000D01*
X144850000Y-90400000D02*
X144487500Y-90037500D01*
X144620051Y-93017686D02*
X144620053Y-92185287D01*
X144651185Y-93048821D02*
X144620053Y-93017691D01*
X143303261Y-89002158D02*
X143303261Y-88986064D01*
X152650600Y-99443842D02*
X152641458Y-99434700D01*
X152650600Y-112175935D02*
X152650600Y-99443842D01*
X152414935Y-112411600D02*
X152650600Y-112175935D01*
X144744535Y-91664447D02*
X144850000Y-91558981D01*
X143303261Y-88986064D02*
X143305925Y-88983400D01*
X144744533Y-93650639D02*
X144744533Y-93164224D01*
X144744534Y-92060806D02*
X144744535Y-91664447D01*
X151250000Y-112151600D02*
X151510000Y-112411600D01*
X146700296Y-95606400D02*
X146700292Y-95606400D01*
X146701296Y-95607400D02*
X146700296Y-95606400D01*
X144651185Y-93070748D02*
X144651185Y-93048821D01*
X143305925Y-88983400D02*
X143326070Y-88983400D01*
X146700292Y-95606400D02*
X144744533Y-93650639D01*
X143887500Y-89586397D02*
X143303261Y-89002158D01*
X152641458Y-99434700D02*
X152640044Y-99434700D01*
X144620053Y-93017691D02*
X144620051Y-93017686D01*
X144620053Y-92185287D02*
X144744534Y-92060806D01*
X144487500Y-90037500D02*
X143887500Y-90037500D01*
X152640044Y-99434700D02*
X148812743Y-95607400D01*
X151510000Y-112411600D02*
X152414935Y-112411600D01*
X143326070Y-88983400D02*
X143344060Y-88965410D01*
X143887500Y-90037500D02*
X143887500Y-89586397D01*
X148812743Y-95607400D02*
X146701296Y-95607400D01*
X144672195Y-93091763D02*
X144651188Y-93070756D01*
X144672195Y-93091885D02*
X144672195Y-93091763D01*
X144651188Y-93070756D02*
X144651185Y-93070748D01*
%TO.N,/SDMMC_D2*%
X144343221Y-90936502D02*
X144342612Y-90935893D01*
X144329121Y-90927206D02*
X144328664Y-90926749D01*
X144349847Y-90947344D02*
X144346757Y-90944254D01*
X144318456Y-93142627D02*
X144318456Y-93142620D01*
X144346757Y-90944254D02*
X144346757Y-90942285D01*
X144343838Y-90937509D02*
X144343221Y-90936892D01*
X144346757Y-90942285D02*
X144344913Y-90940441D01*
X144332515Y-90929014D02*
X144331261Y-90929014D01*
X144349580Y-93195674D02*
X144349580Y-93173749D01*
X144349580Y-93173749D02*
X144318456Y-93142627D01*
X144353843Y-90954507D02*
X144349847Y-90950511D01*
X144318456Y-93142620D02*
X144318448Y-93142612D01*
X148409000Y-95909000D02*
X146574950Y-95909000D01*
X144318448Y-92892760D02*
X144318451Y-92892757D01*
X144343838Y-90938192D02*
X144343838Y-90937509D01*
X152000000Y-99500000D02*
X148409000Y-95909000D01*
X151848400Y-111928399D02*
X151848400Y-110083651D01*
X144353843Y-93199937D02*
X144349580Y-93195674D01*
X151930001Y-112010000D02*
X151848400Y-111928399D01*
X152248293Y-112010000D02*
X151930001Y-112010000D01*
X144331261Y-90929014D02*
X144329453Y-90927206D01*
X144344913Y-90939267D02*
X144343838Y-90938192D01*
X144318453Y-92060359D02*
X144353843Y-92024969D01*
X144329453Y-90927206D02*
X144329121Y-90927206D01*
X144349847Y-90950511D02*
X144349847Y-90947344D01*
X144339394Y-90935893D02*
X144332515Y-90929014D01*
X144318451Y-92892757D02*
X144318453Y-92060359D01*
X144343221Y-90936892D02*
X144343221Y-90936502D01*
X146574950Y-95909000D02*
X144353843Y-93687893D01*
X144344913Y-90940441D02*
X144344913Y-90939267D01*
X144318448Y-93142612D02*
X144318448Y-92892760D01*
X152000000Y-109932051D02*
X152000000Y-99500000D01*
X144353843Y-93687893D02*
X144353843Y-93199937D01*
X152249000Y-112009293D02*
X152248293Y-112010000D01*
X144353843Y-92024969D02*
X144353843Y-90954507D01*
X151848400Y-110083651D02*
X152000000Y-109932051D01*
X144342612Y-90935893D02*
X144339394Y-90935893D01*
%TO.N,/SDMMC_D1*%
X148400000Y-94400000D02*
X146903200Y-92903200D01*
X153858000Y-112676057D02*
X153858000Y-98945138D01*
X147900327Y-113904802D02*
X152629254Y-113904802D01*
X146150999Y-92056524D02*
X145867064Y-92056524D01*
X146005525Y-112010000D02*
X147900327Y-113904802D01*
X144500000Y-112010000D02*
X146005525Y-112010000D01*
X153858000Y-98945138D02*
X149312863Y-94400000D01*
X152629254Y-113904802D02*
X153858000Y-112676057D01*
X149312863Y-94400000D02*
X148400000Y-94400000D01*
X146903200Y-92903200D02*
X146903200Y-92808725D01*
X146903200Y-92808725D02*
X146150999Y-92056524D01*
%TO.N,/SDMMC_D0*%
X153556400Y-99070064D02*
X149187936Y-94701600D01*
X146175632Y-92601489D02*
X145624853Y-92601489D01*
X146647700Y-93073557D02*
X146175632Y-92601489D01*
X145000000Y-111500000D02*
X145922051Y-111500000D01*
X153556400Y-112551130D02*
X153556400Y-99070064D01*
X152504327Y-113603202D02*
X153556400Y-112551130D01*
X148100000Y-94701600D02*
X146647700Y-93249300D01*
X149187936Y-94701600D02*
X148100000Y-94701600D01*
X148025251Y-113603200D02*
X152504327Y-113603202D01*
X146647700Y-93249300D02*
X146647700Y-93073557D01*
X145922051Y-111500000D02*
X148025251Y-113603200D01*
D25*
%TO.N,/PA6*%
X162118800Y-88118800D02*
X169000000Y-95000000D01*
X157511787Y-88118800D02*
X162118800Y-88118800D01*
X151222134Y-81829147D02*
X151647850Y-81829147D01*
X148600000Y-79950000D02*
X149342987Y-79950000D01*
X151850590Y-82031887D02*
X151850590Y-82457603D01*
X171760000Y-95000000D02*
X173000000Y-93760000D01*
X151850590Y-82457603D02*
X157511787Y-88118800D01*
X149342987Y-79950000D02*
X151222134Y-81829147D01*
X169000000Y-95000000D02*
X171760000Y-95000000D01*
X151647850Y-81829147D02*
X151850590Y-82031887D01*
X148099218Y-80450782D02*
X148600000Y-79950000D01*
X148099218Y-80763293D02*
X148099218Y-80450782D01*
%TO.N,/PF11*%
X152041190Y-82291190D02*
X152041190Y-81952937D01*
X163178200Y-87928200D02*
X157678200Y-87928200D01*
X151726799Y-81638547D02*
X151388547Y-81638547D01*
X147789403Y-80323681D02*
X147777301Y-80323681D01*
X147822297Y-80344877D02*
X147810599Y-80344877D01*
X147810599Y-80344877D02*
X147789403Y-80323681D01*
X148517174Y-79650000D02*
X147822297Y-80344877D01*
X148758400Y-79641600D02*
X148750000Y-79650000D01*
X157678200Y-87928200D02*
X152041190Y-82291190D01*
X169010000Y-93760000D02*
X163178200Y-87928200D01*
X170460000Y-93760000D02*
X169010000Y-93760000D01*
X148750000Y-79650000D02*
X148517174Y-79650000D01*
X151388547Y-81638547D02*
X149391600Y-79641600D01*
X152041190Y-81952937D02*
X151726799Y-81638547D01*
X149391600Y-79641600D02*
X148758400Y-79641600D01*
%TO.N,/PB0*%
X171590000Y-100250000D02*
X173000000Y-98840000D01*
X158750000Y-89250000D02*
X169750000Y-100250000D01*
X169750000Y-100250000D02*
X171590000Y-100250000D01*
X148500000Y-82350000D02*
X148900000Y-82750000D01*
X156250000Y-89250000D02*
X158750000Y-89250000D01*
X149750000Y-82750000D02*
X156250000Y-89250000D01*
X148900000Y-82750000D02*
X149750000Y-82750000D01*
%TO.N,/PD11*%
X149001414Y-78800000D02*
X149460814Y-79259400D01*
X169320000Y-91220000D02*
X170460000Y-91220000D01*
X161847747Y-87500000D02*
X165600000Y-87500000D01*
X149460814Y-79259400D02*
X149678950Y-79259400D01*
X151884697Y-81257347D02*
X152422390Y-81795039D01*
X151676897Y-81257347D02*
X151884697Y-81257347D01*
X148000000Y-78800000D02*
X149001414Y-78800000D01*
X165600000Y-87500000D02*
X169320000Y-91220000D01*
X152422390Y-82002840D02*
X157916550Y-87497000D01*
X161844748Y-87497000D02*
X161847747Y-87500000D01*
X152422390Y-81795039D02*
X152422390Y-82002840D01*
X149678950Y-79259400D02*
X151676897Y-81257347D01*
X157916550Y-87497000D02*
X161844748Y-87497000D01*
%TO.N,/PB12*%
X149650000Y-82500000D02*
X150000000Y-82500000D01*
X151690600Y-83815852D02*
X156934148Y-89059400D01*
X151690600Y-83761563D02*
X151690600Y-83815852D01*
X151577534Y-83559400D02*
X151689599Y-83671465D01*
X156934148Y-89059400D02*
X159559400Y-89059400D01*
X150108400Y-82608400D02*
X150483148Y-82608400D01*
X150483148Y-82608400D02*
X151434148Y-83559400D01*
X148001813Y-81850000D02*
X148401813Y-81450000D01*
X148401813Y-81450000D02*
X148600000Y-81450000D01*
X151689599Y-83671465D02*
X151689599Y-83760563D01*
X169340000Y-98840000D02*
X170460000Y-98840000D01*
X150000000Y-82500000D02*
X150108400Y-82608400D01*
X159559400Y-89059400D02*
X169340000Y-98840000D01*
X148600000Y-81450000D02*
X149650000Y-82500000D01*
X151689599Y-83760563D02*
X151690600Y-83761563D01*
X151434148Y-83559400D02*
X151577534Y-83559400D01*
%TO.N,/PB1*%
X150678950Y-82209400D02*
X151397750Y-82928200D01*
X151397750Y-82928200D02*
X151486849Y-82928201D01*
X152071799Y-83602249D02*
X156778950Y-88309400D01*
X152071800Y-83513153D02*
X152071799Y-83602249D01*
X150150000Y-81750000D02*
X150609400Y-82209400D01*
X150609400Y-82209400D02*
X150678950Y-82209400D01*
X161059400Y-88309400D02*
X169050000Y-96300000D01*
X169050000Y-96300000D02*
X170460000Y-96300000D01*
X156778950Y-88309400D02*
X161059400Y-88309400D01*
X151486849Y-82928201D02*
X152071800Y-83513153D01*
X149850000Y-81750000D02*
X150150000Y-81750000D01*
%TO.N,/PG12*%
X149806099Y-89215823D02*
X149802162Y-89211886D01*
X149789053Y-89199690D02*
X149779430Y-89199690D01*
X169170000Y-103920000D02*
X170460000Y-103920000D01*
X149764330Y-89705836D02*
X150400000Y-90341506D01*
X150400000Y-90341506D02*
X150400000Y-91600000D01*
X149802162Y-89211886D02*
X149801249Y-89211886D01*
X149779430Y-89199690D02*
X149764330Y-89214790D01*
X149801249Y-89211886D02*
X149789053Y-89199690D01*
X149764330Y-89214790D02*
X149764330Y-89705836D01*
X160250000Y-95000000D02*
X169170000Y-103920000D01*
X153800000Y-95000000D02*
X160250000Y-95000000D01*
X150400000Y-91600000D02*
X153800000Y-95000000D01*
%TO.N,/PB15*%
X147945100Y-91324020D02*
X147945100Y-91178217D01*
X153540600Y-96790600D02*
X153411680Y-96790600D01*
X153411680Y-96790600D02*
X147945100Y-91324020D01*
X173000000Y-103920000D02*
X171970000Y-104950000D01*
X160218800Y-97218800D02*
X153968800Y-97218800D01*
X153968800Y-97218800D02*
X153540600Y-96790600D01*
X167950000Y-104950000D02*
X160218800Y-97218800D01*
X171970000Y-104950000D02*
X167950000Y-104950000D01*
%TO.N,/PA8*%
X147893750Y-92363300D02*
X147307822Y-91777372D01*
X148336700Y-92806250D02*
X148336700Y-92677690D01*
X170460000Y-106460000D02*
X161990450Y-106460000D01*
X148022309Y-92363300D02*
X147893750Y-92363300D01*
X147307822Y-91777372D02*
X147253875Y-91777372D01*
X148336700Y-92677690D02*
X148022309Y-92363300D01*
X161990450Y-106460000D02*
X148336700Y-92806250D01*
%TO.N,/PB4*%
X172002900Y-111086987D02*
X172002900Y-111250000D01*
X148146100Y-92885200D02*
X148146100Y-92756640D01*
X169462900Y-111086987D02*
X169462900Y-111250000D01*
X148146100Y-92756640D02*
X147943360Y-92553900D01*
X172586987Y-110502900D02*
X172002900Y-111086987D01*
X173997100Y-111086987D02*
X173413013Y-110502900D01*
X147943360Y-92553900D02*
X147814800Y-92553900D01*
X147814800Y-92553900D02*
X147384105Y-92123205D01*
X146427952Y-91610390D02*
X146427952Y-91210603D01*
X147384105Y-92123205D02*
X146940767Y-92123205D01*
X166510900Y-111250000D02*
X148146100Y-92885200D01*
X170873013Y-110502900D02*
X170046987Y-110502900D01*
X173413013Y-110502900D02*
X172586987Y-110502900D01*
X173997100Y-111250000D02*
X173997100Y-111086987D01*
X171457100Y-111250000D02*
X171457100Y-111086987D01*
X171457100Y-111086987D02*
X170873013Y-110502900D01*
X170046987Y-110502900D02*
X169462900Y-111086987D01*
X179460000Y-106460000D02*
X174670000Y-111250000D01*
X169462900Y-111250000D02*
X166510900Y-111250000D01*
X146940767Y-92123205D02*
X146427952Y-91610390D01*
X172002900Y-111250000D02*
X171457100Y-111250000D01*
X174670000Y-111250000D02*
X173997100Y-111250000D01*
%TO.N,/PD0*%
X146999999Y-91034741D02*
X146999999Y-89353825D01*
X146999116Y-89352371D02*
X147001602Y-89349885D01*
X148527300Y-92727300D02*
X153800000Y-98000000D01*
X180457100Y-105462900D02*
X182000000Y-103920000D01*
X147600000Y-91800000D02*
X147728559Y-91800000D01*
X180145052Y-105462900D02*
X180457100Y-105462900D01*
X147601414Y-91636156D02*
X146999999Y-91034741D01*
X154500000Y-98000000D02*
X161850000Y-105350000D01*
X180032152Y-105350000D02*
X180145052Y-105462900D01*
X147728559Y-91800000D02*
X148527300Y-92598741D01*
X153800000Y-98000000D02*
X154500000Y-98000000D01*
X148527300Y-92598741D02*
X148527300Y-92727300D01*
X146999999Y-89353825D02*
X146999116Y-89352942D01*
X146999116Y-89352942D02*
X146999116Y-89352371D01*
X161850000Y-105350000D02*
X180032152Y-105350000D01*
X147601414Y-91798586D02*
X147601414Y-91636156D01*
%TO.N,/PC6*%
X153869549Y-97600000D02*
X154600000Y-97600000D01*
X154600000Y-97600000D02*
X162150000Y-105150000D01*
X162150000Y-105150000D02*
X178230000Y-105150000D01*
X178230000Y-105150000D02*
X179460000Y-103920000D01*
X147542470Y-91272921D02*
X153869549Y-97600000D01*
X147542470Y-90431930D02*
X147542470Y-91272921D01*
%TO.N,/PE12*%
X153009400Y-94878949D02*
X153009400Y-94809400D01*
X150000000Y-91339458D02*
X149970459Y-91309917D01*
X150120580Y-91920580D02*
X150120579Y-91898740D01*
X149970459Y-91309917D02*
X149845931Y-91309917D01*
X150120579Y-91898740D02*
X150000000Y-91778161D01*
X150000000Y-91778161D02*
X150000000Y-91339458D01*
X153399999Y-95200000D02*
X159700000Y-95200000D01*
X153190599Y-94990600D02*
X153121051Y-94990600D01*
X159700000Y-95200000D02*
X163750000Y-99250000D01*
X149845931Y-91309917D02*
X149833194Y-91322654D01*
X153121051Y-94990600D02*
X153009400Y-94878949D01*
X153009400Y-94809400D02*
X150120580Y-91920580D01*
X153399999Y-95200000D02*
X153190599Y-94990600D01*
%TO.N,/PD1*%
X153931953Y-96340600D02*
X149739380Y-92148027D01*
X149739380Y-92148027D02*
X149739380Y-92056640D01*
X149282740Y-91600000D02*
X149000000Y-91600000D01*
X149739380Y-92056640D02*
X149282740Y-91600000D01*
X157213857Y-96610060D02*
X156823917Y-97000000D01*
X154800000Y-97000000D02*
X154140600Y-96340600D01*
X156823917Y-97000000D02*
X154800000Y-97000000D01*
X154140600Y-96340600D02*
X153931953Y-96340600D01*
%TO.N,/PG15*%
X153590599Y-95590600D02*
X153521050Y-95590600D01*
X149929980Y-91999529D02*
X149929980Y-91977690D01*
X149929980Y-91977690D02*
X149487094Y-91534804D01*
X154000000Y-96000000D02*
X153590599Y-95590600D01*
X149487094Y-91534804D02*
X149487094Y-91024951D01*
X152818800Y-94957898D02*
X152818800Y-94888350D01*
X153042101Y-95181200D02*
X152818800Y-94957898D01*
X152818800Y-94888350D02*
X149929980Y-91999529D01*
X149394118Y-90931913D02*
X149407746Y-90918285D01*
X153111650Y-95181200D02*
X153042101Y-95181200D01*
X154150000Y-96150000D02*
X156950000Y-96150000D01*
X149394118Y-90931975D02*
X149394118Y-90931913D01*
X154000000Y-96000000D02*
X154150000Y-96150000D01*
X153521050Y-95590600D02*
X153111650Y-95181200D01*
X149487094Y-91024951D02*
X149394118Y-90931975D01*
D26*
%TO.N,/Memory/BA1*%
X129226852Y-81963881D02*
X129226852Y-82823148D01*
X139200000Y-83400000D02*
X137800000Y-83400000D01*
X129490733Y-81700000D02*
X129226852Y-81963881D01*
%TO.N,/Memory/~{RAS}*%
X125502536Y-86631757D02*
X125234293Y-86900000D01*
X140871922Y-85950000D02*
X141550000Y-85950000D01*
X139551217Y-86325493D02*
X138356495Y-85130771D01*
X138356495Y-85130771D02*
X136730771Y-85130771D01*
%TO.N,/Memory/BA1*%
X129226852Y-82823148D02*
X128900000Y-83150000D01*
%TO.N,/Memory/~{RAS}*%
X140496429Y-86325493D02*
X140871922Y-85950000D01*
%TO.N,/Memory/BA1*%
X139400000Y-83600000D02*
X139200000Y-83400000D01*
%TO.N,/Memory/~{RAS}*%
X139551217Y-86325493D02*
X140496429Y-86325493D01*
%TO.N,/Memory/~{CAS}*%
X138272907Y-89054464D02*
X138054464Y-89272907D01*
X126924507Y-88272171D02*
X126924507Y-87744873D01*
X126924507Y-87744873D02*
X126705127Y-87525493D01*
%TO.N,/Memory/A9*%
X131195536Y-87527093D02*
X130837573Y-87885056D01*
X130837573Y-87885056D02*
X130407978Y-87885056D01*
%TO.N,/Memory/~{CAS}*%
X138054464Y-89272907D02*
X137745536Y-89272907D01*
%TO.N,/Memory/A9*%
X131840292Y-87527093D02*
X131195536Y-87527093D01*
%TO.N,/Memory/~{CAS}*%
X138272907Y-88172907D02*
X138272907Y-89054464D01*
X126705127Y-87525493D02*
X126177829Y-87525493D01*
%TO.N,/Memory/A9*%
X131910292Y-87597093D02*
X131840292Y-87527093D01*
%TO.N,/Memory/~{CAS}*%
X127775243Y-89122907D02*
X126924507Y-88272171D01*
X137700000Y-87600000D02*
X138272907Y-88172907D01*
%TO.N,/Memory/~{CS}*%
X142475493Y-90953451D02*
X140689075Y-92739869D01*
X140689075Y-92739869D02*
X139859118Y-92739869D01*
X142475493Y-89137447D02*
X142475493Y-90953451D01*
X142374507Y-89036461D02*
X142475493Y-89137447D01*
X142475493Y-87394873D02*
X142374507Y-87495859D01*
X142475493Y-86725493D02*
X142475493Y-87394873D01*
X142374507Y-87495859D02*
X142374507Y-89036461D01*
X142100000Y-86350000D02*
X142475493Y-86725493D01*
X140999998Y-86350000D02*
X142100000Y-86350000D01*
%TD*%
M02*
