M48
; DRILL file {KiCad 9.0.0} date 2025-03-22T23:10:56-0400
; FORMAT={-:-/ absolute / inch / decimal}
; #@! TF.CreationDate,2025-03-22T23:10:56-04:00
; #@! TF.GenerationSoftware,Kicad,Pcbnew,9.0.0
; #@! TF.FileFunction,MixedPlating,1,6
FMAT,2
INCH
; #@! TA.AperFunction,Plated,PTH,ViaDrill
T1C0.0079
; #@! TA.AperFunction,Plated,PTH,ComponentDrill
T2C0.0079
; #@! TA.AperFunction,Plated,PTH,ComponentDrill
T3C0.0315
; #@! TA.AperFunction,Plated,PTH,ComponentDrill
T4C0.0354
; #@! TA.AperFunction,Plated,PTH,ComponentDrill
T5C0.0374
; #@! TA.AperFunction,Plated,PTH,ComponentDrill
T6C0.0394
; #@! TA.AperFunction,Plated,PTH,ComponentDrill
T7C0.0402
; #@! TA.AperFunction,Plated,PTH,ComponentDrill
T8C0.0630
; #@! TA.AperFunction,Plated,PTH,ComponentDrill
T9C0.0906
; #@! TA.AperFunction,NonPlated,NPTH,ComponentDrill
T10C0.1280
%
G90
G05
T1
X4.4488Y-3.5232
X4.4803Y-3.0906
X4.4843Y-3.0394
X4.4882Y-3.4882
X4.4921Y-3.6732
X4.4961Y-3.7441
X4.6654Y-3.4606
X4.6693Y-2.9823
X4.685Y-3.0413
X4.685Y-3.4232
X4.6937Y-3.2992
X4.6949Y-3.4941
X4.6988Y-3.5276
X4.7047Y-3.2382
X4.7146Y-3.1398
X4.7147Y-2.9921
X4.7231Y-3.432
X4.7244Y-3.9567
X4.7264Y-3.7874
X4.7269Y-2.9565
X4.7281Y-3.4938
X4.7324Y-3.3033
X4.7343Y-4.0551
X4.7343Y-4.0846
X4.7382Y-3.2343
X4.7382Y-3.3346
X4.7402Y-3.4055
X4.7441Y-4.1929
X4.7444Y-3.7794
X4.7539Y-3.8583
X4.7579Y-3.5256
X4.7598Y-3.2402
X4.7609Y-3.3563
X4.7638Y-3.0906
X4.7638Y-4.0551
X4.7638Y-4.0846
X4.7744Y-2.887
X4.7756Y-3.4035
X4.7933Y-4.0551
X4.7933Y-4.0846
X4.8138Y-3.2303
X4.8228Y-3.4626
X4.8303Y-3.1133
X4.8346Y-3.6437
X4.8452Y-3.5097
X4.8476Y-3.4252
X4.8528Y-3.4543
X4.856Y-3.2402
X4.8662Y-3.5303
X4.8681Y-4.1555
X4.8701Y-2.8642
X4.872Y-3.3386
X4.872Y-3.4094
X4.872Y-3.937
X4.8751Y-3.1134
X4.8894Y-3.2475
X4.8937Y-3.6161
X4.9016Y-3.937
X4.9114Y-4.1437
X4.9114Y-4.1634
X4.9114Y-4.1831
X4.9114Y-4.2028
X4.9129Y-3.1133
X4.9173Y-3.0286
X4.9173Y-3.3031
X4.9173Y-3.4213
X4.9173Y-3.4606
X4.9173Y-3.4941
X4.9213Y-3.9665
X4.9213Y-4.2224
X4.931Y-3.6221
X4.9311Y-3.937
X4.947Y-3.4588
X4.9488Y-3.3031
X4.9508Y-3.4921
X4.9535Y-3.1105
X4.9537Y-4.2028
X4.9547Y-3.4272
X4.9577Y-3.2372
X4.9606Y-3.937
X4.9783Y-3.4291
X4.9803Y-3.937
X4.9807Y-3.6447
X4.9811Y-3.2687
X4.9823Y-3.4606
X4.9843Y-3.3051
X4.9843Y-3.9616
X4.9852Y-3.4904
X4.9916Y-3.1104
X4.9941Y-3.0276
X4.9961Y-3.7795
X5.0004Y-3.6791
X5.0079Y-3.3012
X5.0089Y-3.2709
X5.0118Y-3.0807
X5.0143Y-3.4631
X5.016Y-3.2414
X5.0197Y-2.9371
X5.0197Y-4.3406
X5.0315Y-3.7283
X5.0364Y-4.2913
X5.0393Y-3.493
X5.0394Y-3.8583
X5.0394Y-4.0945
X5.0433Y-3.5319
X5.0451Y-3.1104
X5.0453Y-3.4213
X5.0472Y-3.4606
X5.048Y-3.3038
X5.0492Y-4.3799
X5.0494Y-3.2366
X5.0552Y-3.6416
X5.0591Y-4.2717
X5.0591Y-4.311
X5.0632Y-3.6763
X5.065Y-4.3642
X5.0664Y-4.1019
X5.0688Y-3.4238
X5.0748Y-3.2736
X5.0748Y-3.3031
X5.0768Y-3.4921
X5.0769Y-3.4629
X5.0787Y-4.3799
X5.0797Y-3.5236
X5.0846Y-3.6772
X5.0887Y-4.0013
X5.0906Y-4.1181
X5.0918Y-4.0198
X5.0945Y-4.0374
X5.0984Y-3.8681
X5.1051Y-3.2371
X5.1083Y-3.5236
X5.1088Y-3.4916
X5.1095Y-3.302
X5.1142Y-3.9897
X5.126Y-3.9606
X5.1299Y-4.2126
X5.1312Y-3.684
X5.1317Y-3.1142
X5.1342Y-3.46
X5.1353Y-3.9273
X5.1358Y-3.0276
X5.1358Y-3.4941
X5.1362Y-3.2365
X5.1417Y-3.3031
X5.1418Y-3.2722
X5.1575Y-3.6879
X5.1657Y-3.2382
X5.1673Y-4.0256
X5.1673Y-4.0846
X5.1693Y-3.4626
X5.1703Y-3.5256
X5.1704Y-3.9394
X5.1707Y-4.2259
X5.1729Y-3.743
X5.1752Y-3.3031
X5.1823Y-3.251
X5.187Y-4.1653
X5.1929Y-3.9165
X5.1963Y-4.3006
X5.1969Y-4.1142
X5.1988Y-4.221
X5.2067Y-4.0453
X5.2143Y-3.5677
X5.2146Y-2.8502
X5.2165Y-4.1339
X5.2165Y-4.1634
X5.2336Y-3.9395
X5.2342Y-3.5824
X5.2421Y-3.9165
X5.2523Y-3.9386
X5.2598Y-3.2421
X5.2657Y-3.8386
X5.2933Y-3.937
X5.2953Y-3.8052
X5.3113Y-3.8226
X5.3346Y-4.2618
X5.3351Y-4.1005
X5.3425Y-4.0394
X5.3445Y-4.2126
X5.3445Y-4.3307
X5.3568Y-4.092
X5.3583Y-4.2293
X5.372Y-4.1102
X5.374Y-4.2126
X5.376Y-4.0925
X5.3937Y-3.8386
X5.4075Y-3.8602
X5.421Y-3.4421
X5.4232Y-3.8386
X5.4291Y-3.4999
X5.4311Y-3.2638
X5.4496Y-3.1928
X5.4505Y-3.408
X5.4508Y-3.8555
X5.4567Y-3.2115
X5.4578Y-3.1633
X5.4582Y-3.4267
X5.4686Y-3.244
X5.4715Y-4.0197
X5.4724Y-3.4114
X5.4764Y-3.8937
X5.483Y-3.3252
X5.4839Y-3.1856
X5.4843Y-3.8465
X5.4882Y-3.2913
X5.4882Y-3.4372
X5.4921Y-3.374
X5.4941Y-3.4665
X5.4964Y-3.5727
X5.497Y-3.69
X5.5Y-3.6142
X5.502Y-3.9961
X5.502Y-4.0256
X5.502Y-4.0453
X5.5063Y-3.6512
X5.5124Y-3.2022
X5.5144Y-3.558
X5.5157Y-4.2815
X5.5214Y-3.6353
X5.5217Y-3.9961
X5.5293Y-3.5393
X5.53Y-3.3792
X5.5315Y-3.1299
X5.5315Y-3.2232
X5.5315Y-4.0551
X5.5323Y-3.5197
X5.533Y-3.4597
X5.5336Y-3.2637
X5.5413Y-3.9862
X5.5489Y-3.541
X5.549Y-3.3416
X5.5512Y-3.3996
X5.5512Y-3.1772
X5.5512Y-3.3622
X5.5512Y-3.4193
X5.5512Y-3.8661
X5.5512Y-4.0551
X5.5512Y-3.2441
X5.5514Y-3.3004
X5.552Y-3.52
X5.552Y-3.499
X5.5523Y-3.2232
X5.5552Y-3.4796
X5.5682Y-3.4339
X5.5689Y-3.3436
X5.5691Y-3.5408
X5.5705Y-3.2638
X5.5709Y-3.5039
X5.5709Y-3.9862
X5.571Y-3.4534
X5.5712Y-3.2869
X5.5728Y-3.3839
X5.5728Y-3.5945
X5.573Y-3.3142
X5.5748Y-3.4144
X5.5758Y-2.8425
X5.5768Y-2.9783
X5.5769Y-3.4722
X5.5822Y-3.3582
X5.5906Y-3.7028
X5.5931Y-3.514
X5.6142Y-3.3071
X5.6189Y-3.2594
X5.622Y-3.4488
X5.622Y-3.4724
X5.624Y-3.5032
X5.6252Y-3.2881
X5.626Y-3.1908
X5.6358Y-2.7244
X5.6378Y-3.3853
X5.6429Y-3.3583
X5.6435Y-3.5026
X5.6476Y-3.6673
X5.6487Y-3.2948
X5.6509Y-3.3183
X5.6546Y-3.2609
X5.6576Y-3.5788
X5.6614Y-3.1339
X5.6617Y-3.1882
X5.6693Y-3.7106
X5.675Y-3.5018
X5.6772Y-3.2913
X5.6772Y-3.4701
X5.6788Y-3.3965
X5.6822Y-3.5798
X5.6865Y-3.5203
X5.689Y-4.4098
X5.692Y-3.3621
X5.6946Y-3.5023
X5.6964Y-3.3197
X5.6978Y-3.2966
X5.6995Y-3.4457
X5.7006Y-3.4688
X5.7087Y-4.3898
X5.7146Y-3.3823
X5.7146Y-3.3563
X5.7151Y-3.2612
X5.7213Y-3.1532
X5.7262Y-3.4185
X5.7274Y-3.2898
X5.7283Y-3.1268
X5.7283Y-3.2421
X5.7304Y-3.5202
X5.7314Y-3.5399
X5.7333Y-3.6457
X5.7338Y-3.5007
X5.7402Y-3.3445
X5.7402Y-3.7992
X5.7428Y-3.6243
X5.748Y-3.2677
X5.7536Y-3.5002
X5.7536Y-3.4217
X5.7542Y-3.1416
X5.7552Y-3.4436
X5.7559Y-3.3228
X5.7577Y-3.6709
X5.7579Y-3.3996
X5.7598Y-3.3614
X5.7649Y-3.591
X5.7659Y-3.3032
X5.7665Y-3.5571
X5.7671Y-3.0817
X5.7677Y-3.5177
X5.7711Y-3.2443
X5.7739Y-3.1427
X5.7805Y-3.6031
X5.7837Y-3.1256
X5.7874Y-4.4098
X5.7875Y-3.5177
X5.7879Y-3.1773
X5.7965Y-3.6448
X5.7967Y-3.7918
X5.7972Y-3.8386
X5.7974Y-3.6133
X5.8051Y-3.1282
X5.8067Y-3.2393
X5.8071Y-3.3398
X5.8071Y-3.4252
X5.8071Y-3.5198
X5.8071Y-3.2206
X5.8075Y-3.4688
X5.8082Y-3.258
X5.8084Y-3.4462
X5.8088Y-3.5571
X5.8096Y-3.3121
X5.8104Y-3.496
X5.815Y-3.6575
X5.8169Y-3.9665
X5.818Y-3.1623
X5.824Y-3.3798
X5.8242Y-3.2829
X5.8246Y-3.5897
X5.8268Y-3.1024
X5.8268Y-3.2421
X5.8268Y-3.4016
X5.8268Y-3.2224
X5.8269Y-3.5197
X5.8289Y-3.2637
X5.83Y-3.5392
X5.8301Y-3.4977
X5.8307Y-3.1797
X5.8315Y-3.5712
X5.8441Y-3.3007
X5.8455Y-3.4812
X5.8465Y-3.2224
X5.8465Y-3.2421
X5.8469Y-3.5195
X5.8498Y-3.539
X5.8563Y-4.4193
X5.8581Y-3.1625
X5.8661Y-3.2992
X5.8661Y-3.6063
X5.8667Y-3.1809
X5.8682Y-3.5655
X5.8768Y-3.0303
X5.8811Y-3.4416
X5.8816Y-3.6299
X5.8822Y-3.5007
X5.8822Y-3.5795
X5.8838Y-3.308
X5.8913Y-3.3381
X5.8979Y-3.5124
X5.8989Y-3.5954
X5.8996Y-3.2185
X5.9048Y-3.4637
X5.9154Y-4.4098
X5.9261Y-3.4567
X5.932Y-3.3135
X5.9333Y-3.3826
X5.9449Y-3.1378
X5.9526Y-3.3353
X5.9547Y-4.4154
X5.9557Y-3.0839
X5.9557Y-3.0213
X5.9606Y-3.3579
X5.9633Y-3.1716
X5.9647Y-3.2352
X5.9764Y-3.0394
X5.9803Y-3.0039
X5.9843Y-2.874
X5.9941Y-4.4098
X5.9951Y-3.0803
X6.0468Y-3.2541
X6.0523Y-3.563
X6.0721Y-3.563
X6.0995Y-3.9798
X6.1024Y-2.8839
X6.1318Y-3.1398
X6.1383Y-2.9088
X6.1467Y-2.751
X6.1496Y-3.8031
X6.1516Y-3.1398
X6.1614Y-2.8248
X6.1614Y-3.5394
X6.1619Y-2.9047
X6.1791Y-3.7854
X6.1895Y-3.8035
X6.1988Y-3.3799
X6.2047Y-3.2776
X6.2205Y-3.5374
X6.2795Y-2.5276
X6.2795Y-2.6772
X6.2795Y-3.0118
X6.2795Y-3.9665
X6.2894Y-4.0157
X6.311Y-3.0118
X6.3189Y-2.9252
X6.3189Y-3.7992
X6.3583Y-3.0906
X6.3819Y-3.2894
X6.3819Y-3.3878
X6.4063Y-4.0382
X6.4213Y-2.7756
X6.4331Y-3.7913
X6.4469Y-3.9075
X6.4685Y-3.815
T2
X6.0812Y-2.9724
X6.0812Y-3.0118
X6.0812Y-3.0512
X6.1206Y-2.9724
X6.1206Y-3.0118
X6.1206Y-3.0512
X6.1599Y-2.9724
X6.1599Y-3.0118
X6.1599Y-3.0512
T4
X6.6825Y-2.8657
X6.6825Y-2.9657
X6.6825Y-3.0657
X6.6825Y-3.1657
X6.7825Y-2.9157
X6.7825Y-3.0157
X6.7825Y-3.1157
X6.7825Y-3.2157
T5
X4.6386Y-2.7839
X4.737Y-2.7839
X4.8157Y-2.7839
X4.9142Y-2.7839
X5.4063Y-2.7839
X5.5047Y-2.7839
X5.5835Y-2.7839
X5.6819Y-2.7839
T6
X4.3504Y-3.5138
X4.3504Y-3.6138
X4.3504Y-3.7138
X6.711Y-3.4898
X6.711Y-3.5898
X6.711Y-3.6898
X6.711Y-3.7898
X6.711Y-3.8898
X6.711Y-3.9898
X6.711Y-4.0898
X6.711Y-4.1898
X6.711Y-4.2898
X6.711Y-4.3898
X6.811Y-3.4898
X6.811Y-3.5898
X6.811Y-3.6898
X6.811Y-3.7898
X6.811Y-3.8898
X6.811Y-3.9898
X6.811Y-4.0898
X6.811Y-4.1898
X6.811Y-4.2898
X6.811Y-4.3898
X7.0752Y-3.4898
X7.0752Y-3.5898
X7.0752Y-3.6898
X7.0752Y-3.7898
X7.0752Y-3.8898
X7.0752Y-3.9898
X7.0752Y-4.0898
X7.0752Y-4.1898
X7.0752Y-4.2898
X7.0752Y-4.3898
X7.1752Y-3.4898
X7.1752Y-3.5898
X7.1752Y-3.6898
X7.1752Y-3.7898
X7.1752Y-3.8898
X7.1752Y-3.9898
X7.1752Y-4.0898
X7.1752Y-4.1898
X7.1752Y-4.2898
X7.1752Y-4.3898
T7
X6.4923Y-2.8256
X6.4923Y-2.9256
X6.4923Y-3.1559
X6.4923Y-3.2559
T8
X6.9124Y-2.7297
X6.9124Y-3.3518
T9
X4.5177Y-2.6772
X5.035Y-2.6772
X5.2854Y-2.6772
X5.8028Y-2.6772
T10
X7.0325Y-2.8157
X7.0325Y-3.2657
T3
G00X4.4134Y-3.9528
M15
G01X4.5157Y-3.9528
M16
G05
G00X4.4213Y-4.1811
M15
G01X4.5079Y-4.1811
M16
G05
G00X4.6535Y-4.1142
M15
G01X4.6535Y-4.0276
M16
G05
M30
