%TF.GenerationSoftware,KiCad,Pcbnew,9.0.0*%
%TF.CreationDate,2025-03-22T23:10:54-04:00*%
%TF.ProjectId,simpleSBC,73696d70-6c65-4534-9243-2e6b69636164,rev?*%
%TF.SameCoordinates,Original*%
%TF.FileFunction,Paste,Top*%
%TF.FilePolarity,Positive*%
%FSLAX46Y46*%
G04 Gerber Fmt 4.6, Leading zero omitted, Abs format (unit mm)*
G04 Created by KiCad (PCBNEW 9.0.0) date 2025-03-22 23:10:54*
%MOMM*%
%LPD*%
G01*
G04 APERTURE LIST*
G04 Aperture macros list*
%AMRoundRect*
0 Rectangle with rounded corners*
0 $1 Rounding radius*
0 $2 $3 $4 $5 $6 $7 $8 $9 X,Y pos of 4 corners*
0 Add a 4 corners polygon primitive as box body*
4,1,4,$2,$3,$4,$5,$6,$7,$8,$9,$2,$3,0*
0 Add four circle primitives for the rounded corners*
1,1,$1+$1,$2,$3*
1,1,$1+$1,$4,$5*
1,1,$1+$1,$6,$7*
1,1,$1+$1,$8,$9*
0 Add four rect primitives between the rounded corners*
20,1,$1+$1,$2,$3,$4,$5,0*
20,1,$1+$1,$4,$5,$6,$7,0*
20,1,$1+$1,$6,$7,$8,$9,0*
20,1,$1+$1,$8,$9,$2,$3,0*%
%AMFreePoly0*
4,1,25,0.266375,0.443630,0.297109,0.420047,0.420047,0.297109,0.458455,0.230584,0.463512,0.192176,0.463512,-0.192176,0.443630,-0.266375,0.420047,-0.297109,0.297109,-0.420047,0.230584,-0.458455,0.192176,-0.463512,-0.192176,-0.463512,-0.266375,-0.443630,-0.297109,-0.420047,-0.420047,-0.297109,-0.458455,-0.230584,-0.463512,-0.192176,-0.463512,0.192176,-0.443630,0.266375,-0.420047,0.297109,
-0.297109,0.420047,-0.230584,0.458455,-0.192176,0.463512,0.192176,0.463512,0.266375,0.443630,0.266375,0.443630,$1*%
G04 Aperture macros list end*
%ADD10RoundRect,0.140000X-0.170000X0.140000X-0.170000X-0.140000X0.170000X-0.140000X0.170000X0.140000X0*%
%ADD11RoundRect,0.225000X-0.225000X-0.250000X0.225000X-0.250000X0.225000X0.250000X-0.225000X0.250000X0*%
%ADD12RoundRect,0.135000X-0.135000X-0.185000X0.135000X-0.185000X0.135000X0.185000X-0.135000X0.185000X0*%
%ADD13RoundRect,0.140000X0.170000X-0.140000X0.170000X0.140000X-0.170000X0.140000X-0.170000X-0.140000X0*%
%ADD14RoundRect,0.135000X-0.185000X0.135000X-0.185000X-0.135000X0.185000X-0.135000X0.185000X0.135000X0*%
%ADD15RoundRect,0.140000X-0.140000X-0.170000X0.140000X-0.170000X0.140000X0.170000X-0.140000X0.170000X0*%
%ADD16RoundRect,0.140000X0.140000X0.170000X-0.140000X0.170000X-0.140000X-0.170000X0.140000X-0.170000X0*%
%ADD17C,0.230000*%
%ADD18RoundRect,0.243750X0.243750X0.456250X-0.243750X0.456250X-0.243750X-0.456250X0.243750X-0.456250X0*%
%ADD19RoundRect,0.250000X-0.250000X-0.475000X0.250000X-0.475000X0.250000X0.475000X-0.250000X0.475000X0*%
%ADD20R,0.800000X0.220000*%
%ADD21R,0.220000X0.800000*%
%ADD22R,3.600000X4.600000*%
%ADD23RoundRect,0.250000X0.475000X-0.250000X0.475000X0.250000X-0.475000X0.250000X-0.475000X-0.250000X0*%
%ADD24R,0.750000X0.850000*%
%ADD25RoundRect,0.135000X0.135000X0.185000X-0.135000X0.185000X-0.135000X-0.185000X0.135000X-0.185000X0*%
%ADD26R,0.600000X0.500000*%
%ADD27RoundRect,0.250000X-0.375000X-0.850000X0.375000X-0.850000X0.375000X0.850000X-0.375000X0.850000X0*%
%ADD28RoundRect,0.225000X0.250000X-0.225000X0.250000X0.225000X-0.250000X0.225000X-0.250000X-0.225000X0*%
%ADD29R,1.200000X0.600000*%
%ADD30RoundRect,0.250000X0.375000X0.850000X-0.375000X0.850000X-0.375000X-0.850000X0.375000X-0.850000X0*%
%ADD31RoundRect,0.135000X0.185000X-0.135000X0.185000X0.135000X-0.185000X0.135000X-0.185000X-0.135000X0*%
%ADD32RoundRect,0.218750X0.256250X-0.218750X0.256250X0.218750X-0.256250X0.218750X-0.256250X-0.218750X0*%
%ADD33RoundRect,0.150000X-0.512500X-0.150000X0.512500X-0.150000X0.512500X0.150000X-0.512500X0.150000X0*%
%ADD34RoundRect,0.218750X-0.218750X-0.256250X0.218750X-0.256250X0.218750X0.256250X-0.218750X0.256250X0*%
%ADD35R,1.600000X1.400000*%
%ADD36R,0.850000X1.100000*%
%ADD37R,0.750000X1.100000*%
%ADD38R,1.200000X1.000000*%
%ADD39R,1.550000X1.350000*%
%ADD40R,1.900000X1.350000*%
%ADD41R,1.170000X1.800000*%
%ADD42RoundRect,0.225000X-0.250000X0.225000X-0.250000X-0.225000X0.250000X-0.225000X0.250000X0.225000X0*%
%ADD43R,0.650000X2.770000*%
%ADD44RoundRect,0.250000X0.850000X-0.375000X0.850000X0.375000X-0.850000X0.375000X-0.850000X-0.375000X0*%
%ADD45RoundRect,0.250000X0.250000X0.475000X-0.250000X0.475000X-0.250000X-0.475000X0.250000X-0.475000X0*%
%ADD46RoundRect,0.225000X0.225000X0.250000X-0.225000X0.250000X-0.225000X-0.250000X0.225000X-0.250000X0*%
%ADD47RoundRect,0.150000X-0.825000X-0.150000X0.825000X-0.150000X0.825000X0.150000X-0.825000X0.150000X0*%
%ADD48FreePoly0,270.000000*%
%ADD49RoundRect,0.062500X-0.062500X0.375000X-0.062500X-0.375000X0.062500X-0.375000X0.062500X0.375000X0*%
%ADD50RoundRect,0.062500X-0.375000X0.062500X-0.375000X-0.062500X0.375000X-0.062500X0.375000X0.062500X0*%
%ADD51C,0.400000*%
G04 APERTURE END LIST*
D10*
%TO.C,C43*%
X152275000Y-76270000D03*
X152275000Y-77230000D03*
%TD*%
D11*
%TO.C,C71*%
X126375000Y-109000000D03*
X127925000Y-109000000D03*
%TD*%
D12*
%TO.C,R61*%
X158502500Y-67050000D03*
X159522500Y-67050000D03*
%TD*%
D13*
%TO.C,C96*%
X134900000Y-108480000D03*
X134900000Y-107520000D03*
%TD*%
D11*
%TO.C,C70*%
X126825000Y-104500000D03*
X128375000Y-104500000D03*
%TD*%
D12*
%TO.C,R57*%
X112990000Y-92510000D03*
X114010000Y-92510000D03*
%TD*%
D14*
%TO.C,R51*%
X152300000Y-78190000D03*
X152300000Y-79210000D03*
%TD*%
D15*
%TO.C,C6*%
X128820000Y-79850000D03*
X129780000Y-79850000D03*
%TD*%
D13*
%TO.C,C39*%
X109750000Y-79480000D03*
X109750000Y-78520000D03*
%TD*%
D12*
%TO.C,R62*%
X145490000Y-78250000D03*
X146510000Y-78250000D03*
%TD*%
D16*
%TO.C,C19*%
X122980000Y-91900000D03*
X122020000Y-91900000D03*
%TD*%
D17*
%TO.C,U1*%
X147100000Y-88450000D03*
X146450000Y-88450000D03*
X145800000Y-88450000D03*
X145150000Y-88450000D03*
X144500000Y-88450000D03*
X143850000Y-88450000D03*
X143200000Y-88450000D03*
X142550000Y-88450000D03*
X141900000Y-88450000D03*
X147100000Y-87800000D03*
X146450000Y-87800000D03*
X145800000Y-87800000D03*
X145150000Y-87800000D03*
X144500000Y-87800000D03*
X143850000Y-87800000D03*
X143200000Y-87800000D03*
X142550000Y-87800000D03*
X141900000Y-87800000D03*
X147100000Y-87150000D03*
X146450000Y-87150000D03*
X145800000Y-87150000D03*
X145150000Y-87150000D03*
X144500000Y-87150000D03*
X143850000Y-87150000D03*
X143200000Y-87150000D03*
X142550000Y-87150000D03*
X141900000Y-87150000D03*
X147100000Y-86500000D03*
X146450000Y-86500000D03*
X145800000Y-86500000D03*
X145150000Y-86500000D03*
X144500000Y-86500000D03*
X143850000Y-86500000D03*
X143200000Y-86500000D03*
X142550000Y-86500000D03*
X141900000Y-86500000D03*
X147100000Y-85850000D03*
X146450000Y-85850000D03*
X145800000Y-85850000D03*
X145150000Y-85850000D03*
X144500000Y-85850000D03*
X143850000Y-85850000D03*
X143200000Y-85850000D03*
X142550000Y-85850000D03*
X141900000Y-85850000D03*
X147100000Y-85200000D03*
X146450000Y-85200000D03*
X145800000Y-85200000D03*
X145150000Y-85200000D03*
X144500000Y-85200000D03*
X143850000Y-85200000D03*
X143200000Y-85200000D03*
X142550000Y-85200000D03*
X141900000Y-85200000D03*
X147100000Y-84550000D03*
X146450000Y-84550000D03*
X145800000Y-84550000D03*
X145150000Y-84550000D03*
X144500000Y-84550000D03*
X143850000Y-84550000D03*
X143200000Y-84550000D03*
X142550000Y-84550000D03*
X141900000Y-84550000D03*
X147100000Y-83900000D03*
X146450000Y-83900000D03*
X145800000Y-83900000D03*
X145150000Y-83900000D03*
X144500000Y-83900000D03*
X143850000Y-83900000D03*
X143200000Y-83900000D03*
X142550000Y-83900000D03*
X141900000Y-83900000D03*
X147100000Y-83250000D03*
X146450000Y-83250000D03*
X145800000Y-83250000D03*
X145150000Y-83250000D03*
X144500000Y-83250000D03*
X143850000Y-83250000D03*
X143200000Y-83250000D03*
X142550000Y-83250000D03*
X141900000Y-83250000D03*
X149000000Y-90350000D03*
X148500000Y-90350000D03*
X148000000Y-90350000D03*
X147500000Y-90350000D03*
X146500000Y-90350000D03*
X146000000Y-90350000D03*
X145000000Y-90350000D03*
X144500000Y-90350000D03*
X143500000Y-90350000D03*
X143000000Y-90350000D03*
X142000000Y-90350000D03*
X141500000Y-90350000D03*
X141000000Y-90350000D03*
X140500000Y-90350000D03*
X140000000Y-90350000D03*
X149000000Y-89850000D03*
X148500000Y-89850000D03*
X148000000Y-89850000D03*
X147500000Y-89850000D03*
X147000000Y-89850000D03*
X146500000Y-89850000D03*
X146000000Y-89850000D03*
X145500000Y-89850000D03*
X145000000Y-89850000D03*
X144500000Y-89850000D03*
X144000000Y-89850000D03*
X143500000Y-89850000D03*
X143000000Y-89850000D03*
X142500000Y-89850000D03*
X142000000Y-89850000D03*
X141500000Y-89850000D03*
X141000000Y-89850000D03*
X140500000Y-89850000D03*
X140000000Y-89850000D03*
X149000000Y-89350000D03*
X148500000Y-89350000D03*
X148000000Y-89350000D03*
X147500000Y-89350000D03*
X147000000Y-89350000D03*
X146500000Y-89350000D03*
X146000000Y-89350000D03*
X145500000Y-89350000D03*
X145000000Y-89350000D03*
X144500000Y-89350000D03*
X144000000Y-89350000D03*
X143500000Y-89350000D03*
X143000000Y-89350000D03*
X142500000Y-89350000D03*
X142000000Y-89350000D03*
X141500000Y-89350000D03*
X141000000Y-89350000D03*
X140500000Y-89350000D03*
X140000000Y-89350000D03*
X149000000Y-88850000D03*
X148500000Y-88850000D03*
X148000000Y-88850000D03*
X141000000Y-88850000D03*
X140500000Y-88850000D03*
X140000000Y-88850000D03*
X149000000Y-88350000D03*
X148500000Y-88350000D03*
X148000000Y-88350000D03*
X141000000Y-88350000D03*
X140500000Y-88350000D03*
X148500000Y-87850000D03*
X148000000Y-87850000D03*
X141000000Y-87850000D03*
X140500000Y-87850000D03*
X140000000Y-87850000D03*
X149000000Y-87350000D03*
X148500000Y-87350000D03*
X148000000Y-87350000D03*
X141000000Y-87350000D03*
X140500000Y-87350000D03*
X140000000Y-87350000D03*
X149000000Y-86850000D03*
X148500000Y-86850000D03*
X148000000Y-86850000D03*
X141000000Y-86850000D03*
X140500000Y-86850000D03*
X148500000Y-86350000D03*
X148000000Y-86350000D03*
X141000000Y-86350000D03*
X140500000Y-86350000D03*
X140000000Y-86350000D03*
X149000000Y-85850000D03*
X148500000Y-85850000D03*
X148000000Y-85850000D03*
X141000000Y-85850000D03*
X140500000Y-85850000D03*
X140000000Y-85850000D03*
X149000000Y-85350000D03*
X148500000Y-85350000D03*
X148000000Y-85350000D03*
X141000000Y-85350000D03*
X140500000Y-85350000D03*
X148500000Y-84850000D03*
X148000000Y-84850000D03*
X141000000Y-84850000D03*
X140500000Y-84850000D03*
X140000000Y-84850000D03*
X149000000Y-84350000D03*
X148500000Y-84350000D03*
X148000000Y-84350000D03*
X141000000Y-84350000D03*
X140500000Y-84350000D03*
X140000000Y-84350000D03*
X149000000Y-83850000D03*
X148500000Y-83850000D03*
X148000000Y-83850000D03*
X141000000Y-83850000D03*
X140500000Y-83850000D03*
X148500000Y-83350000D03*
X148000000Y-83350000D03*
X141000000Y-83350000D03*
X140500000Y-83350000D03*
X140000000Y-83350000D03*
X149000000Y-82850000D03*
X148500000Y-82850000D03*
X148000000Y-82850000D03*
X141000000Y-82850000D03*
X140500000Y-82850000D03*
X140000000Y-82850000D03*
X149000000Y-82350000D03*
X148500000Y-82350000D03*
X148000000Y-82350000D03*
X147500000Y-82350000D03*
X147000000Y-82350000D03*
X146500000Y-82350000D03*
X146000000Y-82350000D03*
X145500000Y-82350000D03*
X145000000Y-82350000D03*
X144500000Y-82350000D03*
X144000000Y-82350000D03*
X143500000Y-82350000D03*
X143000000Y-82350000D03*
X142500000Y-82350000D03*
X142000000Y-82350000D03*
X141500000Y-82350000D03*
X141000000Y-82350000D03*
X140500000Y-82350000D03*
X140000000Y-82350000D03*
X149000000Y-81850000D03*
X148500000Y-81850000D03*
X148000000Y-81850000D03*
X147500000Y-81850000D03*
X147000000Y-81850000D03*
X146500000Y-81850000D03*
X146000000Y-81850000D03*
X145500000Y-81850000D03*
X145000000Y-81850000D03*
X144500000Y-81850000D03*
X144000000Y-81850000D03*
X143500000Y-81850000D03*
X143000000Y-81850000D03*
X142500000Y-81850000D03*
X142000000Y-81850000D03*
X141500000Y-81850000D03*
X141000000Y-81850000D03*
X140500000Y-81850000D03*
X140000000Y-81850000D03*
X149000000Y-81350000D03*
X148500000Y-81350000D03*
X148000000Y-81350000D03*
X147500000Y-81350000D03*
X147000000Y-81350000D03*
X146000000Y-81350000D03*
X145500000Y-81350000D03*
X144500000Y-81350000D03*
X144000000Y-81350000D03*
X143000000Y-81350000D03*
X142500000Y-81350000D03*
X141500000Y-81350000D03*
X141000000Y-81350000D03*
X140500000Y-81350000D03*
X140000000Y-81350000D03*
%TD*%
D18*
%TO.C,D1*%
X160500000Y-62750000D03*
X158625000Y-62750000D03*
%TD*%
D14*
%TO.C,JP2*%
X113000000Y-89490000D03*
X113000000Y-90510000D03*
%TD*%
D13*
%TO.C,C47*%
X161000000Y-79730000D03*
X161000000Y-78770000D03*
%TD*%
D19*
%TO.C,C93*%
X138200000Y-108750000D03*
X140100000Y-108750000D03*
%TD*%
%TO.C,C85*%
X160325000Y-72250000D03*
X162225000Y-72250000D03*
%TD*%
D20*
%TO.C,U4*%
X129900000Y-101350000D03*
X129900000Y-101750000D03*
X129900000Y-102150000D03*
X129900000Y-102550000D03*
X129900000Y-102950000D03*
X129900000Y-103350000D03*
X129900000Y-103750000D03*
X129900000Y-104150000D03*
X129900000Y-104550000D03*
X129900000Y-104950000D03*
X129900000Y-105350000D03*
X129900000Y-105750000D03*
D21*
X130550000Y-106500000D03*
X130950000Y-106500000D03*
X131350000Y-106500000D03*
X131750000Y-106500000D03*
X132150000Y-106500000D03*
X132550000Y-106500000D03*
X132950000Y-106500000D03*
X133350000Y-106500000D03*
X133750000Y-106500000D03*
X134150000Y-106500000D03*
D20*
X134800000Y-105760000D03*
X134800000Y-105350000D03*
X134800000Y-104950000D03*
X134800000Y-104550000D03*
X134800000Y-104150000D03*
X134800000Y-103750000D03*
X134800000Y-103350000D03*
X134800000Y-102950000D03*
X134800000Y-102550000D03*
X134800000Y-102150000D03*
X134800000Y-101750000D03*
X134800000Y-101350000D03*
D21*
X134150000Y-100600000D03*
X133750000Y-100600000D03*
X133350000Y-100600000D03*
X132950000Y-100600000D03*
X132550000Y-100600000D03*
X132150000Y-100600000D03*
X131750000Y-100600000D03*
X131350000Y-100600000D03*
X130950000Y-100600000D03*
X130550000Y-100600000D03*
D22*
X132350000Y-103550000D03*
%TD*%
D23*
%TO.C,C90*%
X123800000Y-102700000D03*
X123800000Y-100800000D03*
%TD*%
%TO.C,C91*%
X123650000Y-107450000D03*
X123650000Y-105550000D03*
%TD*%
D24*
%TO.C,Y3*%
X156025000Y-73075000D03*
X156025000Y-71725000D03*
X154975000Y-71725000D03*
X154975000Y-73075000D03*
%TD*%
D14*
%TO.C,R7*%
X152700000Y-84990000D03*
X152700000Y-86010000D03*
%TD*%
D25*
%TO.C,R63*%
X161240000Y-101750000D03*
X160220000Y-101750000D03*
%TD*%
D14*
%TO.C,R52*%
X162800000Y-77490000D03*
X162800000Y-78510000D03*
%TD*%
D10*
%TO.C,C67*%
X134900000Y-109420000D03*
X134900000Y-110380000D03*
%TD*%
D26*
%TO.C,X1*%
X151450000Y-86450000D03*
X150350000Y-86450000D03*
X150350000Y-87250000D03*
X151450000Y-87250000D03*
%TD*%
D13*
%TO.C,C86*%
X132900000Y-110280000D03*
X132900000Y-109320000D03*
%TD*%
D12*
%TO.C,R42*%
X153690000Y-79700000D03*
X154710000Y-79700000D03*
%TD*%
D27*
%TO.C,L3*%
X136825000Y-102100000D03*
X138975000Y-102100000D03*
%TD*%
D28*
%TO.C,C73*%
X136100000Y-108975000D03*
X136100000Y-107425000D03*
%TD*%
D12*
%TO.C,R55*%
X158990000Y-74250000D03*
X160010000Y-74250000D03*
%TD*%
D25*
%TO.C,R8*%
X151435000Y-85325000D03*
X150415000Y-85325000D03*
%TD*%
D15*
%TO.C,C29*%
X152620000Y-87100000D03*
X153580000Y-87100000D03*
%TD*%
D29*
%TO.C,Y1*%
X150900000Y-89700000D03*
X150900000Y-88500000D03*
%TD*%
D12*
%TO.C,R6*%
X150390000Y-84100000D03*
X151410000Y-84100000D03*
%TD*%
D30*
%TO.C,L2*%
X127975000Y-106750000D03*
X125825000Y-106750000D03*
%TD*%
D31*
%TO.C,R49*%
X152000000Y-74760000D03*
X152000000Y-73740000D03*
%TD*%
D27*
%TO.C,L4*%
X137725000Y-106400000D03*
X139875000Y-106400000D03*
%TD*%
D10*
%TO.C,C68*%
X131900000Y-109320000D03*
X131900000Y-110280000D03*
%TD*%
D14*
%TO.C,JP3*%
X114000000Y-89490000D03*
X114000000Y-90510000D03*
%TD*%
D31*
%TO.C,R54*%
X158500000Y-73310000D03*
X158500000Y-72290000D03*
%TD*%
D12*
%TO.C,R40*%
X158502500Y-61225000D03*
X159522500Y-61225000D03*
%TD*%
D13*
%TO.C,C69*%
X133150000Y-99480000D03*
X133150000Y-98520000D03*
%TD*%
D32*
%TO.C,FB1*%
X110250000Y-77287500D03*
X110250000Y-75712500D03*
%TD*%
D33*
%TO.C,U5*%
X159000000Y-75550000D03*
X159000000Y-76500000D03*
X159000000Y-77450000D03*
X161275000Y-77450000D03*
X161275000Y-76500000D03*
X161275000Y-75550000D03*
%TD*%
D34*
%TO.C,FB3*%
X160487500Y-70500000D03*
X162062500Y-70500000D03*
%TD*%
D12*
%TO.C,R44*%
X149990000Y-74750000D03*
X151010000Y-74750000D03*
%TD*%
D16*
%TO.C,C4*%
X123480000Y-79850000D03*
X122520000Y-79850000D03*
%TD*%
D35*
%TO.C,SW1*%
X165750000Y-108750000D03*
X157750000Y-108750000D03*
X165750000Y-104250000D03*
X157750000Y-104250000D03*
%TD*%
D14*
%TO.C,R56*%
X162775000Y-75490000D03*
X162775000Y-76510000D03*
%TD*%
D15*
%TO.C,C22*%
X124420000Y-79850000D03*
X125380000Y-79850000D03*
%TD*%
D13*
%TO.C,C95*%
X133900000Y-110280000D03*
X133900000Y-109320000D03*
%TD*%
D36*
%TO.C,J2*%
X152105000Y-113612500D03*
X151005000Y-113612500D03*
X149905000Y-113612500D03*
X148805000Y-113612500D03*
X147705000Y-113612500D03*
X146605000Y-113612500D03*
X145505000Y-113612500D03*
D37*
X144455000Y-113612500D03*
D38*
X154740000Y-107462500D03*
X154740000Y-103762500D03*
D39*
X154565000Y-113487500D03*
D40*
X151240000Y-102787500D03*
X145270000Y-102787500D03*
D41*
X143245000Y-113262500D03*
%TD*%
D10*
%TO.C,C84*%
X157500000Y-79620000D03*
X157500000Y-80580000D03*
%TD*%
D42*
%TO.C,C89*%
X139250000Y-97475000D03*
X139250000Y-99025000D03*
%TD*%
D18*
%TO.C,D2*%
X160450000Y-65550000D03*
X158575000Y-65550000D03*
%TD*%
D31*
%TO.C,R41*%
X151250000Y-79010000D03*
X151250000Y-77990000D03*
%TD*%
D43*
%TO.C,J1*%
X154250000Y-98280000D03*
X154250000Y-94250000D03*
X155520000Y-98280000D03*
X155520000Y-94250000D03*
X156790000Y-98280000D03*
X156790000Y-94250000D03*
X158060000Y-98280000D03*
X158060000Y-94250000D03*
X159330000Y-98280000D03*
X159330000Y-94250000D03*
X160600000Y-98280000D03*
X160600000Y-94250000D03*
X161870000Y-98280000D03*
X161870000Y-94250000D03*
%TD*%
D15*
%TO.C,C16*%
X128220000Y-91900000D03*
X129180000Y-91900000D03*
%TD*%
D16*
%TO.C,C36*%
X153380000Y-88400000D03*
X152420000Y-88400000D03*
%TD*%
D28*
%TO.C,C94*%
X128650000Y-112275000D03*
X128650000Y-110725000D03*
%TD*%
D31*
%TO.C,JP1*%
X148500000Y-97110000D03*
X148500000Y-96090000D03*
%TD*%
D13*
%TO.C,C42*%
X154900000Y-70680000D03*
X154900000Y-69720000D03*
%TD*%
%TO.C,C76*%
X130900000Y-110280000D03*
X130900000Y-109320000D03*
%TD*%
%TO.C,C38*%
X150500000Y-81780000D03*
X150500000Y-80820000D03*
%TD*%
%TO.C,C83*%
X157500000Y-73280000D03*
X157500000Y-72320000D03*
%TD*%
D44*
%TO.C,L1*%
X126600000Y-102775000D03*
X126600000Y-100625000D03*
%TD*%
D23*
%TO.C,C92*%
X140900000Y-104050000D03*
X140900000Y-102150000D03*
%TD*%
D16*
%TO.C,C20*%
X126180000Y-91900000D03*
X125220000Y-91900000D03*
%TD*%
D13*
%TO.C,C88*%
X132150000Y-99480000D03*
X132150000Y-98520000D03*
%TD*%
D10*
%TO.C,C99*%
X134200000Y-98540000D03*
X134200000Y-99500000D03*
%TD*%
D16*
%TO.C,C49*%
X143680000Y-78000000D03*
X142720000Y-78000000D03*
%TD*%
%TO.C,C97*%
X161230000Y-100750000D03*
X160270000Y-100750000D03*
%TD*%
D44*
%TO.C,L5*%
X137000000Y-99825000D03*
X137000000Y-97675000D03*
%TD*%
D14*
%TO.C,R46*%
X150250000Y-77990000D03*
X150250000Y-79010000D03*
%TD*%
D16*
%TO.C,C14*%
X127380000Y-79850000D03*
X126420000Y-79850000D03*
%TD*%
D12*
%TO.C,R58*%
X112990000Y-94500000D03*
X114010000Y-94500000D03*
%TD*%
D15*
%TO.C,C12*%
X130220000Y-91900000D03*
X131180000Y-91900000D03*
%TD*%
D42*
%TO.C,C87*%
X127150000Y-110725000D03*
X127150000Y-112275000D03*
%TD*%
D45*
%TO.C,C98*%
X134700000Y-97000000D03*
X132800000Y-97000000D03*
%TD*%
D14*
%TO.C,R53*%
X159100000Y-78690000D03*
X159100000Y-79710000D03*
%TD*%
D46*
%TO.C,C72*%
X137875000Y-104200000D03*
X136325000Y-104200000D03*
%TD*%
D10*
%TO.C,C74*%
X131150000Y-98520000D03*
X131150000Y-99480000D03*
%TD*%
D47*
%TO.C,U2*%
X112525000Y-74595000D03*
X112525000Y-75865000D03*
X112525000Y-77135000D03*
X112525000Y-78405000D03*
X117475000Y-78405000D03*
X117475000Y-77135000D03*
X117475000Y-75865000D03*
X117475000Y-74595000D03*
%TD*%
D13*
%TO.C,C41*%
X110750000Y-79460000D03*
X110750000Y-78500000D03*
%TD*%
%TO.C,C44*%
X157000000Y-70680000D03*
X157000000Y-69720000D03*
%TD*%
D14*
%TO.C,R60*%
X162250000Y-100740000D03*
X162250000Y-101760000D03*
%TD*%
D13*
%TO.C,C75*%
X129900000Y-110280000D03*
X129900000Y-109320000D03*
%TD*%
D16*
%TO.C,C80*%
X153880000Y-73300000D03*
X152920000Y-73300000D03*
%TD*%
D48*
%TO.C,U6*%
X155962500Y-76000000D03*
X154962500Y-76000000D03*
X155962500Y-77000000D03*
X154962500Y-77000000D03*
D49*
X156712500Y-74562500D03*
X156212500Y-74562500D03*
X155712500Y-74562500D03*
X155212500Y-74562500D03*
X154712500Y-74562500D03*
X154212500Y-74562500D03*
D50*
X153525000Y-75250000D03*
X153525000Y-75750000D03*
X153525000Y-76250000D03*
X153525000Y-76750000D03*
X153525000Y-77250000D03*
X153525000Y-77750000D03*
D49*
X154212500Y-78437500D03*
X154712500Y-78437500D03*
X155212500Y-78437500D03*
X155712500Y-78437500D03*
X156212500Y-78437500D03*
X156712500Y-78437500D03*
D50*
X157400000Y-77750000D03*
X157400000Y-77250000D03*
X157400000Y-76750000D03*
X157400000Y-76250000D03*
X157400000Y-75750000D03*
X157400000Y-75250000D03*
%TD*%
D12*
%TO.C,R43*%
X149290000Y-77000000D03*
X150310000Y-77000000D03*
%TD*%
D16*
%TO.C,C37*%
X153380000Y-89600000D03*
X152420000Y-89600000D03*
%TD*%
%TO.C,C79*%
X153880000Y-72300000D03*
X152920000Y-72300000D03*
%TD*%
D51*
%TO.C,U3*%
X118900000Y-89100000D03*
X118900000Y-88300000D03*
X118900000Y-87500000D03*
X118900000Y-84300000D03*
X118900000Y-83500000D03*
X118900000Y-82700000D03*
X119700000Y-89100000D03*
X119700000Y-88300000D03*
X119700000Y-87500000D03*
X119700000Y-84300000D03*
X119700000Y-83500000D03*
X119700000Y-82700000D03*
X120500000Y-89100000D03*
X120500000Y-88300000D03*
X120500000Y-87500000D03*
X120500000Y-84300000D03*
X120500000Y-83500000D03*
X120500000Y-82700000D03*
X121300000Y-89100000D03*
X121300000Y-88300000D03*
X121300000Y-87500000D03*
X121300000Y-84300000D03*
X121300000Y-83500000D03*
X121300000Y-82700000D03*
X122100000Y-89100000D03*
X122100000Y-88300000D03*
X122100000Y-87500000D03*
X122100000Y-84300000D03*
X122100000Y-83500000D03*
X122100000Y-82700000D03*
X122900000Y-89100000D03*
X122900000Y-88300000D03*
X122900000Y-87500000D03*
X122900000Y-84300000D03*
X122900000Y-83500000D03*
X122900000Y-82700000D03*
X123700000Y-89100000D03*
X123700000Y-88300000D03*
X123700000Y-87500000D03*
X123700000Y-84300000D03*
X123700000Y-83500000D03*
X123700000Y-82700000D03*
X124500000Y-89100000D03*
X124500000Y-88300000D03*
X124500000Y-87500000D03*
X124500000Y-84300000D03*
X124500000Y-83500000D03*
X124500000Y-82700000D03*
X125300000Y-89100000D03*
X125300000Y-88300000D03*
X125300000Y-87500000D03*
X125300000Y-84300000D03*
X125300000Y-83500000D03*
X125300000Y-82700000D03*
X126100000Y-89100000D03*
X126100000Y-88300000D03*
X126100000Y-87500000D03*
X126100000Y-84300000D03*
X126100000Y-83500000D03*
X126100000Y-82700000D03*
X126900000Y-89100000D03*
X126900000Y-88300000D03*
X126900000Y-87500000D03*
X126900000Y-84300000D03*
X126900000Y-83500000D03*
X126900000Y-82700000D03*
X127700000Y-89100000D03*
X127700000Y-88300000D03*
X127700000Y-87500000D03*
X127700000Y-84300000D03*
X127700000Y-83500000D03*
X127700000Y-82700000D03*
X128500000Y-89100000D03*
X128500000Y-88300000D03*
X128500000Y-87500000D03*
X128500000Y-84300000D03*
X128500000Y-83500000D03*
X128500000Y-82700000D03*
X129300000Y-89100000D03*
X129300000Y-88300000D03*
X129300000Y-87500000D03*
X129300000Y-84300000D03*
X129300000Y-83500000D03*
X129300000Y-82700000D03*
X130100000Y-89100000D03*
X130100000Y-88300000D03*
X130100000Y-87500000D03*
X130100000Y-84300000D03*
X130100000Y-83500000D03*
X130100000Y-82700000D03*
X130900000Y-89100000D03*
X130900000Y-88300000D03*
X130900000Y-87500000D03*
X130900000Y-84300000D03*
X130900000Y-83500000D03*
X130900000Y-82700000D03*
%TD*%
M02*
